<?xml version="1.0" encoding="UTF-8" standalone="no"?>
<!-- Created with Inkscape (http://www.inkscape.org/) -->

<svg
   xmlns:dc="http://purl.org/dc/elements/1.1/"
   xmlns:cc="http://creativecommons.org/ns#"
   xmlns:rdf="http://www.w3.org/1999/02/22-rdf-syntax-ns#"
   xmlns:svg="http://www.w3.org/2000/svg"
   xmlns="http://www.w3.org/2000/svg"
   version="1.1"
   width="128"
   height="128"
   id="svg2">
  <title
     id="title2987">Logo XQF</title>
  <defs
     id="defs4" />
  <metadata
     id="metadata7">
    <rdf:RDF>
      <cc:Work
         rdf:about="">
        <dc:format>image/svg+xml</dc:format>
        <dc:type
           rdf:resource="http://purl.org/dc/dcmitype/StillImage" />
        <dc:title>Logo XQF</dc:title>
        <cc:license
           rdf:resource="http://creativecommons.org/licenses/publicdomain/" />
        <dc:date>2013-11-06</dc:date>
        <dc:creator>
          <cc:Agent>
            <dc:title>Thomas DEBESSE</dc:title>
          </cc:Agent>
        </dc:creator>
      </cc:Work>
      <cc:License
         rdf:about="http://creativecommons.org/licenses/publicdomain/">
        <cc:permits
           rdf:resource="http://creativecommons.org/ns#Reproduction" />
        <cc:permits
           rdf:resource="http://creativecommons.org/ns#Distribution" />
        <cc:permits
           rdf:resource="http://creativecommons.org/ns#DerivativeWorks" />
      </cc:License>
    </rdf:RDF>
  </metadata>
  <g
     transform="translate(-233.6875,-350.31481)"
     id="layer3" />
  <g
     transform="translate(-233.6875,-350.31481)"
     id="layer4">
    <g
       transform="translate(0,-0.71428572)"
       id="g4828">
      <path
         d="m 255.20216,401.59721 c 1.37182,-0.0609 5.65563,-0.264 6.07143,0.44643 0.61471,0.19028 5.23253,10.00988 5.98214,11.51786 0,0 4.79236,-11.34553 5.26785,-11.25001 0.69809,-1.04529 2.38726,-0.71411 5.35715,-0.71429 1.06804,-0.0297 1.92644,0.81662 1.07143,2.94644 -2.65842,6.05747 -5.20412,11.91897 -7.87881,18.10333 0.26785,1.1607 7.01319,15.88483 8.51016,19.1777 0.42081,1.14339 0.42187,2.55682 -1.28634,2.68964 -4.51376,0.011 -5.40714,0.10183 -5.94814,-0.53396 -0.54414,-0.67157 -5.36116,-11.31173 -5.36116,-11.31173 0,0 -3.23764,7.96565 -4.82143,10.98214 -0.52999,0.86272 -1.55667,0.86231 -6.4592,0.85587 -1.02327,-10e-4 -1.57821,-1.40674 -1.02363,-2.89414 1.26652,-3.39683 7.57794,-16.47509 8.13583,-18.31517 -0.45678,-1.30659 -5.57286,-12.04227 -8.33159,-18.57514 -0.47689,-0.95788 -1.19888,-2.75903 0.71431,-3.12497 z m 48.96297,-0.10964 c -2.11871,-0.0193 -12.54915,-0.30208 -17.89601,-0.24357 -1.5345,-0.24096 -4.95113,1.02752 -6.17979,7.4314 -0.54438,2.87804 -1.03494,24.98945 -0.16577,27.57945 1.62794,6.11818 3.56164,8.05883 4.92153,8.29718 3.759,0.11208 5.96875,0.0937 5.96875,0.0937 0,0 0.0288,2.68987 0.21812,4.11167 0.2209,1.23239 1.49922,2.70759 3.28188,2.65688 1.65639,0.13869 3.36995,-1.31309 3.59312,-2.59375 0.22316,-1.18596 0.25063,-4.26855 0.25063,-4.26855 0,0 4.05529,0.10619 6.77871,-0.0612 1.46073,-0.29369 2.61285,-2.06656 4.09883,-8.04394 0.47583,-2.69438 0.76884,-25.14848 -0.25254,-28.14483 -1.19267,-5.75839 -3.38259,-6.79511 -4.61742,-6.81441 z m -5.51655,12.28316 c 2.58102,0.0762 3.2738,0.92966 4.08482,3.67777 0.81102,2.74811 0.19886,11.55991 -0.0446,13.40259 -0.19886,1.26233 -1.14491,1.86146 -1.82206,1.84438 -1.91903,0.0145 -0.35782,-0.0124 -2.23092,0.0306 -0.49974,-0.0509 -0.76769,-0.40627 -0.76994,-0.88229 -0.0149,-3.15778 0.12371,-3.74327 -0.0574,-4.24465 -0.19323,-0.64241 -0.91563,-0.86565 -1.87756,-0.88865 -1.87738,0.009 -0.7402,-0.0259 -2.4933,0.0203 -0.7903,0.0508 -1.29009,0.2197 -1.54014,0.78546 -0.34026,0.7774 -0.11887,0.96745 -0.15005,4.3042 -0.11558,0.65561 -0.48579,0.82674 -0.90845,0.85083 -2.46597,0.0142 -1.20232,-0.011 -2.92703,0.0101 -0.71865,-0.0218 -1.17231,-0.75139 -1.37053,-1.52232 -0.47764,-1.88271 -0.81615,-11.31012 0.0759,-14.19196 0.8474,-2.45958 1.59963,-3.24282 3.5759,-3.21499 0.70869,0.003 4.8233,-0.005 8.45535,0.0186 z m 13.23917,-10.01984 c 0.0261,-1.48993 0.5118,-2.22362 1.61867,-2.22522 6.17759,-0.009 14.86669,-0.18682 21.51717,0.0716 1.73976,0.16908 1.96428,1.42857 1.96428,1.42857 l -0.005,7.54734 c 0,0 0.19091,1.85638 -1.33388,2.1848 -5.12284,0.0921 -7.0826,-0.13075 -15.25703,-0.0631 -0.98726,0.004 -1.75759,0.50621 -1.79655,1.64795 0.0535,1.34547 0.96971,1.73277 1.69194,1.73407 10.74806,0.0491 11.64658,0.048 13.30806,0.1371 0.46192,0.0892 1.45309,0.37735 1.47005,1.41774 0.0671,4.94245 0.004,6.14069 0.0359,10.27056 -0.0685,1.08092 -0.93153,1.47674 -1.50591,1.46285 -8.93614,-0.0575 -5.42726,-0.0453 -14.46487,-0.0588 -0.55312,0.0148 -0.70649,0.30318 -0.72948,0.74254 0.0559,8.03128 0.0152,7.74784 0.0158,12.70874 -0.0887,1.36715 -0.88357,1.85782 -1.5625,1.875 -2.42001,0.0172 -0.53785,0.012 -3.52679,0.0223 -0.90476,-0.0872 -1.43657,-0.64493 -1.51785,-1.98661 -0.0131,-9.04375 -0.0159,-5.96892 0.0785,-37.41334 0,0 -0.0108,-0.88264 -4.4e-4,-1.50447 z"
         id="path4527-3"
         style="fill:#4d4d4d;stroke:#4d4d4d;stroke-width:1.60000002;stroke-linecap:butt;stroke-linejoin:miter;stroke-miterlimit:4;stroke-opacity:1;stroke-dasharray:none" />
      <path
         d="m 236.92811,427.88392 c 2.80204,21.35616 21.27478,36.12585 27.93816,39.35474 2.88597,1.39846 3.63236,-2.237 2.78178,-3.04888 -7.56036,-7.21628 -19.20715,-12.16937 -25.52272,-36.95695 -0.29992,-1.17715 -4.93377,-3.01949 -5.19722,0.65109 z m 87.5108,-46.7466 c -0.76249,-1.44418 7.76711,-16.55835 9.58645,-15.72059 16.80677,7.73917 25.28899,31.3635 25.86149,48.66711 0.0158,0.47926 -15.24381,1.31783 -15.50493,0.22085 -1.22174,-5.13273 -2.83624,-21.46083 -19.94301,-33.16737 z m -45.43169,87.62576 c 59.94068,10.04168 64.62334,-42.79347 65.89507,-42.79347 9.13277,0 13.73812,0.22708 13.73812,0.22708 -10.96343,60.86664 -77.70083,51.29204 -80.83064,47.23384 -2.27237,-2.94645 -0.0834,-4.75633 1.19745,-4.66745 z M 235.4755,412.10047 c 11.77667,-80.79057 91.08641,-55.41214 89.79635,-52.85058 -4.66559,9.26405 -8.26056,16.21023 -8.81743,16.02041 -61.95654,-21.11995 -73.07007,34.69822 -76.07032,38.75327 -0.53794,0.72706 -1.57912,1.08603 -2.56245,0.97625 -1.03483,-0.11551 -2.09341,-0.66233 -2.34615,-2.89935 z"
         id="path3724"
         style="fill:#fefe00;fill-opacity:1;stroke:#808000;stroke-width:3.54070258;stroke-linecap:butt;stroke-linejoin:miter;stroke-miterlimit:4;stroke-opacity:1;stroke-dasharray:none" />
    </g>
    <path
       d="m 254.48274,399.8776 c 1.37182,-0.0609 5.65563,-0.264 6.07143,0.44643 0.61471,0.19028 5.23253,10.00988 5.98214,11.51786 0,0 4.79236,-11.34553 5.26785,-11.25001 0.69809,-1.04529 2.38726,-0.71411 5.35715,-0.71429 1.06804,-0.0297 1.92644,0.81662 1.07143,2.94644 -2.65842,6.05747 -5.20412,11.91897 -7.87881,18.10333 0.26785,1.1607 7.01319,15.88483 8.51016,19.1777 0.42081,1.14339 0.42187,2.55682 -1.28634,2.68964 -4.51376,0.011 -5.40714,0.10183 -5.94814,-0.53396 -0.54414,-0.67157 -5.36116,-11.31173 -5.36116,-11.31173 0,0 -3.23764,7.96565 -4.82143,10.98214 -0.52999,0.86272 -1.55667,0.86231 -6.4592,0.85587 -1.02327,-10e-4 -1.57821,-1.40674 -1.02363,-2.89414 1.26652,-3.39683 7.57794,-16.47509 8.13583,-18.31517 -0.45678,-1.30659 -5.57286,-12.04227 -8.33159,-18.57514 -0.47689,-0.95788 -1.19888,-2.75903 0.71431,-3.12497 z m 48.96297,-0.10964 c -2.11871,-0.0193 -12.54915,-0.30208 -17.89601,-0.24357 -1.25039,0.0274 -4.95113,1.02752 -6.17979,7.4314 -0.54438,2.87804 -1.03494,24.98945 -0.16577,27.57945 1.62794,6.11818 3.56164,8.05883 4.92153,8.29718 3.759,0.11208 5.96875,0.0937 5.96875,0.0937 0,0 0.0288,2.68987 0.21812,4.11167 0.2209,1.23239 1.49922,2.70759 3.28188,2.65688 1.65639,0.13869 3.36995,-1.31309 3.59312,-2.59375 0.22316,-1.18596 0.25063,-4.26855 0.25063,-4.26855 0,0 4.05529,0.10619 6.77871,-0.0612 1.46073,-0.29369 2.61285,-2.06656 4.09883,-8.04394 0.47583,-2.69438 0.76884,-25.14848 -0.25254,-28.14483 -1.19267,-5.75839 -3.38259,-6.79511 -4.61742,-6.81441 z m -5.51655,12.28316 c 2.58102,0.0762 3.2738,0.92966 4.08482,3.67777 0.81102,2.74811 0.19886,11.55991 -0.0446,13.40259 -0.19886,1.26233 -1.14491,1.86146 -1.82206,1.84438 -1.91903,0.0145 -0.35782,-0.0124 -2.23092,0.0306 -0.49974,-0.0509 -0.76769,-0.40627 -0.76994,-0.88229 -0.0149,-3.15778 0.12371,-3.74327 -0.0574,-4.24465 -0.19323,-0.64241 -0.91563,-0.86565 -1.87756,-0.88865 -1.87738,0.009 -0.7402,-0.0259 -2.4933,0.0203 -0.7903,0.0508 -1.29009,0.2197 -1.54014,0.78546 -0.34026,0.7774 -0.11887,0.96745 -0.15005,4.3042 -0.11558,0.65561 -0.48579,0.82674 -0.90845,0.85083 -2.46597,0.0142 -1.20232,-0.011 -2.92703,0.0101 -0.71865,-0.0218 -1.17231,-0.75139 -1.37053,-1.52232 -0.47764,-1.88271 -0.81615,-11.31012 0.0759,-14.19196 0.8474,-2.45958 1.59963,-3.24282 3.5759,-3.21499 0.57066,-0.0125 4.8233,-0.005 8.45535,0.0186 z m 13.23917,-10.01984 c 0.0261,-1.48993 0.5118,-2.22362 1.61867,-2.22522 6.17759,-0.009 14.86669,-0.18682 21.51717,0.0716 1.73976,0.16908 1.96428,1.42857 1.96428,1.42857 l -0.005,7.54734 c 0,0 0.19091,1.85638 -1.33388,2.1848 -5.12284,0.0921 -7.0826,-0.13075 -15.25703,-0.0631 -0.98726,0.004 -1.75759,0.50621 -1.79655,1.64795 0.0535,1.34547 0.96971,1.73277 1.69194,1.73407 10.74806,0.0491 11.64658,0.048 13.30806,0.1371 0.46192,0.0892 1.45309,0.37735 1.47005,1.41774 0.0671,4.94245 0.004,6.14069 0.0359,10.27056 -0.0685,1.08092 -0.93153,1.47674 -1.50591,1.46285 -8.93614,-0.0575 -5.42726,-0.0453 -14.46487,-0.0588 -0.55312,0.0148 -0.70649,0.30318 -0.72948,0.74254 0.0559,8.03128 0.0152,7.74784 0.0158,12.70874 -0.0887,1.36715 -0.88357,1.85782 -1.5625,1.875 -2.42001,0.0172 -0.53785,0.012 -3.52679,0.0223 -0.90476,-0.0872 -1.43657,-0.64493 -1.51785,-1.98661 -0.0131,-9.04375 -0.0159,-5.96892 0.0785,-37.41334 0,0 -0.0108,-0.88264 -4.4e-4,-1.50447 z"
       id="path4527"
       style="fill:#ffffff;stroke:#666666;stroke-width:1.20000005;stroke-linecap:butt;stroke-linejoin:miter;stroke-miterlimit:4;stroke-opacity:1;stroke-dasharray:none" />
  </g>
</svg>
