/* XPM */
static char * aao_xpm[] = {
"16 16 17 1",
" 	c None",
".	c #030304",
"+	c #E2E2E2",
"@	c #222242",
"#	c #C6C6C6",
"$	c #42424A",
"%	c #6A6E82",
"&	c #626672",
"*	c #555567",
"=	c #A64A5A",
"-	c #18182E",
";	c #C4B0B4",
">	c #8A162A",
",	c #B26272",
"'	c #121226",
")	c #FDFBFB",
"!	c #E1CBD0",
"@@@@@@@@>>>>>>>>",
"@''@@@@@>>>>>>>>",
".-@@@@@@>>>>>>>>",
"..'@@@@->>>>>>>>",
"..@@@@@*=>>>>>>>",
"..'@@@';;>>>>>>>",
"...-&%&#!=,,>>>>",
"....&#))))!=>>>>",
">>>>>>!))#--....",
">>>>>>!))#@'....",
">>>>>>+=$+-.....",
">>>>>>=>-*....--",
">>>>>>>>@@...-@@",
">>>>>>>>@@----@@",
">>>>>>>>@@@@@@@@",
">>>>>>>>@@-@@@@@"};
