/* XPM */
static char * connect_xpm[] = {
"24 24 2 1",
" 	c None",
".	c #FFEF00",
"                        ",
"                        ",
"        .               ",
"       ...              ",
"      .....             ",
"     .......            ",
"    .........           ",
"   ...........          ",
"  .............         ",
"    ............        ",
"      ...........       ",
"        .........       ",
"          ......        ",
"         ......         ",
"        ......          ",
"       ........         ",
"        ........        ",
"          .......       ",
"            ......      ",
"              .....     ",
"                ....    ",
"                  ...   ",
"                    ..  ",
"                        "};
