/* XPM */
static char * descent3_xpm[] = {
"16 16 17 1",
" 	c None",
".	c #313C65",
"+	c #97AED4",
"@	c #617CB1",
"#	c #4A5175",
"$	c #F2F5F9",
"%	c #456098",
"&	c #839AC5",
"*	c #CDDAEB",
"=	c #7690BF",
"-	c #B7C5E0",
";	c #5D6D97",
">	c #34497B",
",	c #4D6CA8",
"'	c #7387B6",
")	c #6C87B7",
"!	c #39558F",
"     ='##%;     ",
"   @..%...!#'   ",
"  ;...;....@@#  ",
" '...;....>'>.@ ",
" #..!&%>>>%&>>> ",
"->..%&;!>>%&>>@&",
"-..)!=,>!&+;!>&+",
"-%;)),;%++)>%&++",
"+,,@,,,),,,@+&,+",
"=!!!,@!)%@'-&%@+",
"=!!!,!=%%=$$,%&)",
" @@@!@,!,+$-,@, ",
" )!!%,!,++*)@=) ",
"  ,%@!!%*&&,==  ",
"   =!!!%++@)&   ",
"     @@,@@@     "};
