/* XPM */
static char *et_xpm[]={
"17 17 3 1",
". c None",
"a c #303030",
"# c #c00000",
".................",
"......#...#......",
"......##.##......",
"......##.##......",
"#####.#...#.#####",
"...#..#...#..#...",
".######...######.",
".................",
"..####..#..####..",
".....#..#..#.....",
".aaa.#..#..#.aaa.",
".a...#..#..#..a..",
".aa..#.##.##..a..",
".a...##.##.#..a..",
".aaa.#..#..#..a..",
"........#........",
"................."};
