/* XPM */
static char * gamespy3d_xpm[] = {
"16 16 17 1",
" 	c None",
".	c #00FF00",
"+	c #00DE00",
"@	c #00AE00",
"#	c #007A00",
"$	c #004A00",
"%	c #002E00",
"&	c #39E939",
"*	c #355635",
"=	c #BDF4BD",
"-	c #FFFFFF",
";	c #EFEFEF",
">	c #BFBFBF",
",	c #B8B8B8",
"'	c #7A7A7A",
")	c #373737",
"!	c #000000",
">>>>>!!-!!>>>>>>",
">>>>),,-,,'!>>>>",
">>>),*%'%*',!>>>",
">>),!$...@!),!>>",
">!,!!#...@$!')>>",
">')!%##$$#.@%,!>",
"!-!$.....@@%!,!!",
"---!%#%##%!!'--'",
"!,!%$$!##$@%!,!!",
"!')+.!!!#..$),!>",
">),%.#!!#..!,)>>",
">!)=.@!!#..&,!>>",
">>!)=&@@+&='-)>>",
">>>!!'---'!!);)>",
">>>>>!!-!!>>!);)",
">>>>>>!-!>>>>!)-"};
