/* XPM */
static char * hl_xpm[] = {
"17 17 2 1",
" 	c None",
".	c #000000",
"                 ",
"      .....      ",
"    ..     ..    ",
"   .         .   ",
"  .   ...     .  ",
"  .   ...     .  ",
" .      ..     . ",
" .     ...     . ",
" .    .. ..    . ",
" .    .. ..    . ",
" .   ..   ...  . ",
"  .  ..   ... .  ",
"  .           .  ",
"   .         .   ",
"    ..     ..    ",
"      .....      ",
"                 "};
