/* XPM */
static char * hr2_xpm[] = {
"17 17 2 1",
" 	c None",
".	c #603000",
"                 ",
"        .        ",
"        .        ",
"    .........    ",
"    .........    ",
"        .        ",
"        .        ",
"        .        ",
"  .............  ",
"  .............  ",
"  ..    .    ..  ",
"   .    .    .   ",
"   ..   .   ..   ",
"    .   .   .    ",
"    ..  .  ..    ",
"     .  .  .     ",
"                 "};
