/* XPM */
static char *locked_punkbuster_xpm[]={
"34 17 74 2",
"Qt c None",
".2 c #0d1350",
".U c #101d5b",
".g c #132c6b",
".M c #162e6e",
".Y c #163071",
".3 c #182562",
".P c #203f7f",
".b c #22255f",
".O c #244483",
".o c #244988",
".t c #25326b",
".9 c #254f93",
".T c #2564ab",
".X c #2763aa",
".c c #2a3871",
".J c #2b5696",
".R c #2c65a9",
".8 c #2d5696",
".A c #30376e",
"#. c #3065a8",
"#b c #31589e",
".Z c #324379",
"## c #346fb1",
".k c #36528b",
".d c #38518b",
".L c #3a6aa8",
".N c #3b629d",
".v c #3c65a2",
".5 c #3c6eae",
".F c #406eaa",
".Q c #4073b1",
".s c #426da7",
"#e c #4475b4",
".7 c #461a54",
".h c #4a699e",
".z c #4b74ad",
".4 c #4e7ab2",
".K c #527cb2",
".V c #536092",
"#f c #56518c",
"#a c #585491",
".S c #5d376b",
"#d c #5d76af",
"#g c #5f538c",
".j c #5f87b8",
".p c #678bbc",
".B c #684c84",
".I c #6997c9",
".1 c #6c427c",
".i c #6e8fbe",
".n c #781b4d",
".G c #7c739f",
".l c #7f0000",
".0 c #845d8e",
".r c #85a4cb",
".E c #8aadd3",
".C c #8da5c8",
".u c #8f2153",
".H c #8fb3d9",
".6 c #901444",
"#h c #981d4f",
".w c #98add1",
".y c #98b5d7",
"#c c #a1204f",
".# c #a8274f",
".W c #aa2d5d",
".a c #ae345b",
".m c #b33054",
".f c #b42f57",
".q c #c5c6de",
".D c #c9d2e8",
".x c #f0e4f0",
".e c #ff0000",
"QtQtQtQtQtQtQtQtQtQtQtQtQtQtQtQtQtQtQtQtQtQtQt.#.#.#.#.#QtQtQtQtQtQt",
"QtQtQtQtQtQtQtQtQtQtQtQtQtQtQtQtQtQtQtQtQt.a.aQt.b.c.dQt.a.#QtQtQtQt",
"QtQtQtQtQtQtQt.e.e.eQtQtQtQtQtQtQtQtQtQt.fQtQt.g.h.i.j.kQtQt.#QtQtQt",
"QtQtQtQtQtQt.e.l.l.l.eQtQtQtQtQtQtQtQt.m.#Qt.n.o.p.q.r.s.tQtQt.#QtQt",
"QtQtQtQt.l.e.lQtQtQt.l.e.lQtQtQtQtQt.#.#.#.#.u.v.w.x.y.z.AQtQtQt.#Qt",
"QtQtQtQt.l.e.lQtQtQt.l.e.lQtQtQtQtQt.aQt.#.#.#.B.C.D.E.FQtQtQtQt.aQt",
"QtQtQtQt.l.e.lQtQtQt.l.e.lQtQtQtQt.#QtQtQt.#.#.#.G.H.I.JQtQtQtQtQt.#",
"QtQtQt.l.l.l.l.l.l.l.l.l.l.lQtQtQt.#QtQtQtQt.#.#.#.K.L.MQtQtQtQtQt.#",
"QtQtQt.l.e.e.e.e.e.e.e.e.e.lQtQtQt.#QtQtQtQtQt.#.#.#.N.O.PQtQtQtQt.#",
"QtQtQt.l.eQtQtQtQtQtQtQt.e.lQtQtQt.#QtQtQtQtQtQt.#.#.#.Q.RQtQtQtQt.#",
"QtQtQt.l.e.e.e.e.e.e.e.e.e.lQtQtQt.#QtQtQtQtQtQt.S.#.#.#.T.UQtQtQt.#",
"QtQtQt.l.eQtQtQtQtQtQtQt.e.lQtQtQtQt.aQtQtQtQtQt.V.W.#.X.X.YQtQt.aQt",
"QtQtQt.l.e.e.e.e.e.e.e.e.e.lQtQtQtQt.#QtQtQtQtQt.Z.0.1.X.X.XQtQt.#Qt",
"QtQtQt.l.l.l.l.l.l.l.l.l.l.lQtQtQtQtQt.#QtQtQt.2.3.4.5.X.X.#.#.#QtQt",
"QtQtQtQtQtQtQtQtQtQtQtQtQtQtQtQtQtQtQtQt.#.6.7.8.9#.###a#b.#.#QtQtQt",
"QtQtQtQtQtQtQtQtQtQtQtQtQtQtQtQtQtQtQtQtQt.##c#d#e#f#g#h.#.#QtQtQtQt",
"QtQtQtQtQtQtQtQtQtQtQtQtQtQtQtQtQtQtQtQtQtQtQt.#.#.#.#.#QtQtQtQtQtQt"};
