/* XPM */
static char * q1_xpm[] = {
"17 17 2 1",
" 	c None",
".	c #603000",
"                 ",
"    .       .    ",
"   .         .   ",
"  .           .  ",
" .             . ",
" .             . ",
" .             . ",
" .     ...     . ",
" ..     .     .. ",
"  ..    .    ..  ",
"   ...  .  ...   ",
"    .........    ",
"      .....      ",
"        .        ",
"        .        ",
"        .        ",
"                 "};
