/* XPM */
static char * server_na_xpm[] = {
"17 17 3 1",
" 	c None",
".	c #565656",
"+	c #C6C6C6",
"                 ",
"                 ",
"                 ",
"                 ",
"                 ",
"       ...       ",
"      .+++.      ",
"     .+++++.     ",
"     .+++++.     ",
"     .+++++.     ",
"      .+++.      ",
"       ...       ",
"                 ",
"                 ",
"                 ",
"                 ",
"                 "};
