/* XPM */
static char * server_to_xpm[] = {
"17 17 3 1",
" 	c None",
".	c #665D00",
"+	c #DDCF00",
"                 ",
"                 ",
"                 ",
"                 ",
"                 ",
"                 ",
"                 ",
"    .........    ",
"   .+++++++++.   ",
"    .........    ",
"                 ",
"                 ",
"                 ",
"                 ",
"                 ",
"                 ",
"                 "};
