/* XPM */
static char * un_xpm[] = {
"17 17 3 1",
" 	c None",
".	c #000000",
"+	c #C0C0C0",
"                 ",
"    ...    ...   ",
"   .+++.  .+++.  ",
"   .+++.  .+++.  ",
"   .+++.  .+++.  ",
"  .+++.   .+++.  ",
"  .+++.   .+++.  ",
"  .+++.   .+++.  ",
"  .+++.   .+++.  ",
"  .+++.   .+++.  ",
"  .+++.....+++.  ",
"  .+++++++++++.  ",
"   .+++++++++++. ",
"    .++++++++++. ",
"     .......+++. ",
"            ...  ",
"                 "};
