/* XPM */
static char *un_xpm[]={
"16 16 135 2",
"Qt c None",
"#f c #160f04",
"#s c #171208",
".4 c #21190c",
"#e c #221a0d",
"#r c #221b10",
"#3 c #231c10",
"ab c #241e13",
"ac c #241e14",
"#S c #272013",
"aa c #272117",
"ad c #27221b",
".3 c #2c2417",
"#A c #2c2519",
"#m c #2d2519",
"#F c #2d271f",
"#8 c #2f220c",
"#2 c #2f281e",
"#4 c #302718",
"## c #30281c",
"#9 c #30291d",
"a# c #302b23",
".b c #303030",
"#H c #31291d",
".R c #322a1d",
"#5 c #35250b",
"#I c #352d21",
"ae c #35302a",
".Y c #362e21",
".5 c #373126",
".Q c #3e3628",
"#w c #3e3629",
"#g c #3e3931",
".e c #3e3b34",
"#T c #3f3422",
".L c #3f372b",
"#v c #40382b",
"#t c #403b34",
"#n c #423828",
".F c #42392c",
".S c #423a2f",
"#E c #473517",
"#B c #473e2e",
".E c #473f32",
"#u c #494134",
".Z c #4a4133",
".# c #4a4640",
"#i c #4b4336",
".M c #4c4336",
"#a c #4e4535",
".c c #4e493e",
"#d c #4f3c1c",
"#q c #4f3d1d",
"a. c #4f3f26",
"#G c #534631",
".z c #554e41",
"#6 c #584017",
".a c #585858",
".2 c #5b4b2d",
"#h c #5c5242",
".s c #5f5546",
".P c #615235",
".t c #625a4c",
".7 c #635a4d",
".A c #685d48",
".T c #6b5a3c",
".D c #6c5b39",
".U c #6c6356",
".6 c #6f675a",
".H c #765e34",
"#Z c #77581d",
"#1 c #785822",
".f c #7d786d",
".j c #7f6e50",
".n c #81796d",
"#z c #825f21",
"#7 c #835f21",
"#l c #836022",
"#. c #836226",
".h c #867e72",
"#M c #897857",
".d c #897f6c",
"#R c #8b7451",
".o c #8c8272",
".p c #90897b",
".m c #91887a",
"#U c #92733a",
"#x c #99835a",
"#Y c #9c701f",
".X c #9c8048",
"#0 c #9e7628",
"#y c #9e7728",
".K c #a28957",
".9 c #a37c2f",
".r c #a38650",
"#j c #a48e64",
".y c #a49065",
"#k c #a57e30",
".8 c #a59371",
".u c #a8a399",
".i c #aa9f8c",
"#J c #b19a6c",
"#L c #b28b3e",
"#Q c #b39353",
"#c c #b48833",
"#V c #be9036",
".g c #c0af8c",
"#N c #c2ac80",
".V c #c2b293",
".I c #c4ab7a",
"#b c #c6a25a",
".G c #c7b18a",
"#K c #c99939",
"#W c #cc9d3f",
"#C c #cca659",
"#P c #cfa042",
".l c #cfb580",
"#O c #d1a344",
".1 c #d3ad60",
"#D c #d5a647",
"#X c #daa948",
"#o c #dab56c",
"#p c #dcae53",
".0 c #dcbf85",
".q c #e1d3b7",
".C c #e5bf74",
".B c #e5d2aa",
".N c #eadbb8",
".W c #ebcb8c",
".O c #edce8f",
".x c #edd3a0",
".k c #eeddba",
".J c #f0d7a4",
".v c #f0ddb7",
".w c #f2ddb2",
"QtQtQtQtQt.#.a.a.a.b.#QtQtQtQtQt",
"QtQtQt.#.#.c.a.d.d.d.#.#.#QtQtQt",
"QtQt.#.e.f.g.d.d.d.h.h.i.j.#QtQt",
"QtQt.e.e.k.l.m.n.o.p.q.r.s.tQtQt",
"Qt.#.u.v.w.x.y.z.A.B.C.D.E.F.#Qt",
"Qt.#.G.H.I.J.K.L.M.N.O.P.Q.R.SQt",
"Qt.e.T.U.V.W.X.Y.Z.0.1.2.3.4.5Qt",
"Qt.e.6.7.8.9#.###a#b#c#d#e#f#gQt",
"Qt#h.e#i#j#k#l#m#n#o#p#q#r#s#tQt",
"Qt#u#v#w#x#y#z#A#B#C#D#E#F#G.#Qt",
"Qt#H#I.e#J#K#L#M#N#O#P#Q#R.e.#Qt",
"QtQt#S#T#U#V#W#X#Y#Z#0#1.e.eQtQt",
"QtQt#2#3#4#5#6#7#8#9a..e.e.eQtQt",
"QtQtQta#aaabacadae.#.e.e.eQtQtQt",
"QtQtQtQtQt.#.#.#.#.#.#QtQtQtQtQt",
"QtQtQtQtQtQtQtQtQtQtQtQtQtQtQtQt"};
