/* XPM */
static char * alienarena_xpm[] = {
"16 16 206 2",
"  	c None",
". 	c #22291B",
"+ 	c #222F1C",
"@ 	c #2A3427",
"# 	c #434B43",
"$ 	c #596259",
"% 	c #404741",
"& 	c #16120F",
"* 	c #3C5D36",
"= 	c #618C59",
"- 	c #677E5E",
"; 	c #678A61",
"> 	c #679566",
", 	c #709D70",
"' 	c #88AC89",
") 	c #2A452D",
"! 	c #000000",
"~ 	c #1C2315",
"{ 	c #397634",
"] 	c #63915A",
"^ 	c #5B7952",
"/ 	c #56A04C",
"( 	c #4F8746",
"_ 	c #477446",
": 	c #518051",
"< 	c #7FA87F",
"[ 	c #9FCC9E",
"} 	c #48744D",
"| 	c #070C08",
"1 	c #1C1614",
"2 	c #1F661A",
"3 	c #43843F",
"4 	c #499045",
"5 	c #456F3C",
"6 	c #417437",
"7 	c #375F2E",
"8 	c #2E472C",
"9 	c #2E3B2E",
"0 	c #2F372F",
"a 	c #3D563D",
"b 	c #6EAC6E",
"c 	c #416F46",
"d 	c #1E4919",
"e 	c #227A1A",
"f 	c #30722F",
"g 	c #307428",
"h 	c #2E4425",
"i 	c #297A20",
"j 	c #1F6115",
"k 	c #153C13",
"l 	c #152915",
"m 	c #171A16",
"n 	c #171C18",
"o 	c #132F13",
"p 	c #227F22",
"q 	c #062E0B",
"r 	c #182212",
"s 	c #54974D",
"t 	c #22611E",
"u 	c #28792A",
"v 	c #276F27",
"w 	c #214E19",
"x 	c #1B7511",
"y 	c #0F6205",
"z 	c #033301",
"A 	c #011701",
"B 	c #020802",
"C 	c #020902",
"D 	c #010401",
"E 	c #004700",
"F 	c #045906",
"G 	c #040C06",
"H 	c #2E3E28",
"I 	c #82B879",
"J 	c #1D4D1B",
"K 	c #29792B",
"L 	c #29802B",
"M 	c #22601D",
"N 	c #1B6A12",
"O 	c #105306",
"P 	c #042A00",
"Q 	c #001300",
"R 	c #000800",
"S 	c #000700",
"T 	c #000300",
"U 	c #011A01",
"V 	c #006701",
"W 	c #0A1A0A",
"X 	c #41563A",
"Y 	c #3D8934",
"Z 	c #286E2B",
"` 	c #24451C",
" .	c #2A842C",
"..	c #256E22",
"+.	c #1C6312",
"@.	c #114208",
"#.	c #052100",
"$.	c #001100",
"%.	c #000A01",
"&.	c #000100",
"*.	c #093B11",
"=.	c #006600",
"-.	c #1E321F",
";.	c #495D41",
">.	c #1F8316",
",.	c #264721",
"'.	c #2C5F29",
").	c #25431C",
"!.	c #267025",
"~.	c #1C5D14",
"{.	c #13460A",
"].	c #062300",
"^.	c #000F00",
"/.	c #000400",
"(.	c #062B0C",
"_.	c #07200A",
":.	c #006500",
"<.	c #405441",
"[.	c #33432C",
"}.	c #24841B",
"|.	c #244D1A",
"1.	c #2B5026",
"2.	c #2B672A",
"3.	c #223D1A",
"4.	c #154D10",
"5.	c #14460A",
"6.	c #082501",
"7.	c #000500",
"8.	c #000901",
"9.	c #05360C",
"0.	c #07280A",
"a.	c #081607",
"b.	c #016E02",
"c.	c #3F4F3F",
"d.	c #192213",
"e.	c #24761D",
"f.	c #227918",
"g.	c #28391D",
"h.	c #295226",
"i.	c #603718",
"j.	c #A6685B",
"k.	c #153F0C",
"l.	c #0A2F02",
"m.	c #9D4B48",
"n.	c #2E0900",
"o.	c #05270A",
"p.	c #061505",
"q.	c #043904",
"r.	c #09620B",
"s.	c #232A24",
"t.	c #1C4317",
"u.	c #2B9322",
"v.	c #276C1D",
"w.	c #293F21",
"x.	c #275A24",
"y.	c #343D19",
"z.	c #16260C",
"A.	c #0B1801",
"B.	c #170D04",
"C.	c #04270A",
"D.	c #071E07",
"E.	c #061A05",
"F.	c #016601",
"G.	c #0D3612",
"H.	c #27221E",
"I.	c #276922",
"J.	c #278C1E",
"K.	c #398430",
"L.	c #36562C",
"M.	c #245C21",
"N.	c #233315",
"O.	c #1A290D",
"P.	c #0A430F",
"Q.	c #052F05",
"R.	c #081A07",
"S.	c #054504",
"T.	c #024C07",
"U.	c #110A0F",
"V.	c #272E20",
"W.	c #23641E",
"X.	c #285E1E",
"Y.	c #3A5D30",
"Z.	c #255C21",
"`.	c #365C22",
" +	c #2B501D",
".+	c #0D3B13",
"++	c #071806",
"@+	c #025F02",
"#+	c #014A05",
"$+	c #090F09",
"%+	c #261F1D",
"&+	c #1C4817",
"*+	c #205E19",
"=+	c #1D5518",
"-+	c #0E380A",
";+	c #053403",
">+	c #065308",
",+	c #056207",
"'+	c #062F0A",
")+	c #0A0308",
"!+	c #212B1C",
"~+	c #35482F",
"{+	c #4B6245",
"]+	c #3F563D",
"^+	c #293B2A",
"/+	c #161E17",
"          . + @ # $ %           ",
"      & * = - ; > , ' ) !       ",
"    ~ { ] ^ / ( _ : < [ } |     ",
"  1 2 3 4 5 6 7 8 9 0 a b c !   ",
"  d e f g h i j k l m n o p q   ",
"r s t u v w x y z A B C D E F G ",
"H I J K L M N O P Q R S T U V W ",
"X Y Z `  ...+.@.#.$.%.S &.*.=.-.",
";.>.,.'.).!.~.{.].^.%./.(._.:.<.",
"[.}.|.1.2.3.4.5.6.7.8.9.0.a.b.c.",
"d.e.f.g.h.i.j.k.l.m.n.o.p.q.r.s.",
"  t.u.v.w.x.y.z.A.B.C.D.E.F.G.  ",
"  H.I.J.K.L.M.N.O.P.Q.R.S.T.U.  ",
"    V.W.X.Y.Z.`. +.+++@+#+$+    ",
"      %+&+*+=+-+;+>+,+'+)+      ",
"          !+~+{+]+^+/+          "};
