/* XPM */
static char * aq2_xpm[] = {
"16 16 3 1",
" 	c None",
".	c #000000",
"+	c #472100",
"                ",
"  .......+++++  ",
" .........+++++ ",
" .........+++++ ",
" ...   ...  +++ ",
" ...   ...  +++ ",
" ...   ...  +++ ",
" .........  +++ ",
" .........  +++ ",
" .........  +++ ",
" ...   ... ++++ ",
" ...   ...+++++ ",
" ...   ...+++++ ",
" ...   ...++++  ",
"           +++  ",
"            +++ "};
