/* XPM */
static char * bf1942_xpm[] = {
"16 16 17 1",
" 	c None",
".	c #12120E",
"+	c #A5B386",
"@	c #7D895D",
"#	c #4C4F39",
"$	c #C6DAA6",
"%	c #575F3D",
"&	c #C1D2A0",
"*	c #5F673F",
"=	c #91A070",
"-	c #1A1E16",
";	c #22261E",
">	c #B2C292",
",	c #6A744D",
"'	c #2A2A22",
")	c #3D3E35",
"!	c #E5EAD2",
"                ",
"                ",
"   #***,%       ",
")*,,)@>>=+      ",
"#,@#@,&+&&>     ",
"*@=@#&>+&&@&    ",
"))=,,#!+&++*#   ",
"));>=,#!+#+),%  ",
"))),+=,,#%*+#=@ ",
" )))>@@@%*,*$), ",
"  )#;!%+@==*)+%*",
"   ##)+=+===,*+*",
"    )))+,#@**.) ",
"     )->==)     ",
"      )%)       ",
"                "};
