/* XPM */
static char * buddy_green_xpm[] = {
"18 17 2 1",
" 	c None",
".	c #00D000",
"                  ",
"                  ",
"                  ",
"                  ",
"                  ",
"                  ",
"                  ",
"                  ",
"   ....           ",
"  ......          ",
" ........         ",
" ........         ",
" ........         ",
" ........         ",
"  ......          ",
"   ....           ",
"                  "};
