/* XPM */
static char * buddy_red_xpm[] = {
"18 17 2 1",
" 	c None",
".	c #FF0000",
"                  ",
"       ....       ",
"      ......      ",
"     ........     ",
"     ........     ",
"     ........     ",
"     ........     ",
"      ......      ",
"       ....       ",
"                  ",
"                  ",
"                  ",
"                  ",
"                  ",
"                  ",
"                  ",
"                  "};
