/* XPM */
static char * buddy_blue_xpm[] = {
"18 17 2 1",
" 	c None",
".	c #3048FF",
"                  ",
"                  ",
"                  ",
"                  ",
"                  ",
"                  ",
"                  ",
"                  ",
"           ....   ",
"          ......  ",
"         ........ ",
"         ........ ",
"         ........ ",
"         ........ ",
"          ......  ",
"           ....   ",
"                  "};
