/* XPM */
static char * cdiesel_xpm[] = {
"16 16 14 1",
" 	c #111111",
".	c #2C2C2C",
"+	c #5A5A5A",
"@	c #C6C6C6",
"#	c #A5A5A5",
"$	c #797979",
"%	c #DBDBDB",
"&	c #FEFEFE",
"*	c #8F8F8F",
"=	c #EEEEEE",
"-	c #F7F7F7",
";	c #B1B1B1",
">	c #E5E5E5",
",	c #4A4A4A",
"                ",
"          ..    ",
"         +@#    ",
"        $%&#    ",
"       *=-;.    ",
"      #-=*.     ",
"    .;-==$      ",
"    #->$=#      ",
"   .%&=;-#      ",
"   ,>&&&-*      ",
"    ;-&&-*      ",
"    .;&&&>+     ",
"     .@&&-$     ",
"      ,%-#      ",
"       ,$.      ",
"                "};
