/* XPM */
static char * cod_xpm[] = {
"16 16 17 1",
" 	c None",
".	c #76765A",
"+	c #C3C2A3",
"@	c #4D4D49",
"#	c #AFA996",
"$	c #D5CCB2",
"%	c #383838",
"&	c #B9B79F",
"*	c #292929",
"=	c #424242",
"-	c #A19F8F",
";	c #E5DEC9",
">	c #7A7A56",
",	c #928F84",
"'	c #6D6D63",
")	c #5C5C57",
"!	c #82825A",
"                ",
"       .        ",
"       +@       ",
"      #$%       ",
"      $&*       ",
"      $&@=      ",
" -&;+$;#@>&&$-  ",
"  =@,+;$'##,%   ",
"   *%@.;&)*%    ",
"    @!,),)=     ",
"    '&#))#'     ",
"    -$@@)-!%    ",
"    $)=  .+)    ",
"   )-%    ,,    ",
"   *       )    ",
"                "};
