/* XPM */
static char *cod2_xpm[]={
"16 16 102 2",
"Qt c #040403",
".l c #060604",
"#t c #080805",
".# c #0a0a07",
"#H c #0d0c0a",
"#C c #0e0d09",
".b c #10100b",
".L c #12110c",
"#p c #14130d",
".k c #17150f",
"#B c #1c1b12",
".A c #1c1b13",
"#l c #1e1c13",
"#u c #1e1c14",
".T c #232117",
".M c #252419",
".d c #29271b",
"#m c #292822",
".p c #2b291c",
".j c #2c2a1d",
".V c #2c2b25",
".B c #333121",
"#z c #343122",
".W c #343222",
"#s c #373424",
".U c #38362e",
".N c #3a3726",
"#c c #3b3a31",
".g c #3c3927",
".K c #403c2a",
"#x c #474535",
"#a c #494629",
".O c #4f4b34",
".C c #4f4c36",
".6 c #524e35",
"#D c #53472a",
".o c #545131",
"#h c #59543a",
".a c #5b573b",
".Z c #5b573c",
"#G c #5d5c4e",
".S c #5e593d",
".e c #605942",
".1 c #605b39",
".9 c #605c39",
"#i c #635e3a",
"#r c #666241",
"#. c #686345",
".5 c #686657",
"#J c #727060",
".G c #777248",
"#o c #777564",
".P c #78734d",
"#v c #7b7543",
"#F c #7e7c69",
".q c #807b5b",
"#d c #807e6b",
".w c #817b43",
".X c #878145",
"#k c #8a845b",
".J c #8e896a",
"#I c #989680",
".D c #999372",
".0 c #9c926e",
"#b c #9c9983",
".Y c #9e9869",
"#y c #a3a189",
".2 c #a4a18a",
"#f c #a59e5f",
".z c #a79c76",
"#A c #a8a37d",
".h c #ab9d79",
"#j c #aca571",
".H c #afa972",
"#e c #b3b096",
"## c #b5aa7e",
".8 c #b7ac77",
".n c #bab37a",
".I c #bdb686",
"#E c #bfbba0",
".7 c #c0b96d",
".i c #c0b97f",
".x c #c1b67b",
".c c #c7c085",
".R c #c8bd94",
"#w c #c8c287",
".r c #cbbb8f",
".E c #cdc189",
"#q c #d1ca83",
".t c #d5c67f",
".f c #d5ca96",
"#g c #d8d19a",
".y c #daca9e",
".m c #ddc991",
"#n c #ddd9ba",
".v c #e0da9e",
".u c #e1d699",
".Q c #e1d6a2",
".3 c #e8e5c3",
".4 c #ece8c6",
".F c #eee8bb",
".s c #f1ddac",
"QtQtQtQtQtQtQt.#QtQtQtQtQtQtQtQt",
"QtQtQtQtQtQtQt.a.bQtQtQtQtQtQtQt",
"QtQtQtQtQtQtQt.c.dQtQtQtQtQtQtQt",
"QtQtQtQtQtQt.e.f.gQtQtQtQtQtQtQt",
"QtQtQtQtQtQt.h.i.j.kQtQtQtQtQtQt",
"QtQtQtQtQt.l.m.n.o.pQtQtQtQtQtQt",
"Qt.q.r.s.t.u.v.n.o.w.n.x.y.z.AQt",
"QtQt.B.C.D.E.F.f.G.H.I.J.K.LQtQt",
"QtQtQt.M.N.O.P.Q.R.S.j.T.U.VQtQt",
"QtQtQtQt.W.X.Y.Z.0.1.N.2.3.4.5Qt",
"QtQtQtQt.6.7.8.9#.###a#b#c#d#eQt",
"QtQtQtQt#f#g.O#h#i#j#k#l#m#n#oQt",
"QtQtQt#p#q#r#s#t#u#v#w#x#n#y.lQt",
"QtQtQt#z#A#BQtQtQt#C#D#E.3#F#GQt",
"QtQtQt#u.LQtQtQtQtQt#H#I#I#I#JQt",
"QtQtQtQtQtQtQtQtQtQtQtQtQtQtQtQt"};
