/* XPM */
static char *cod4_xpm[]={
"16 16 154 2",
"Qt c #010401",
".d c #010501",
".p c #010601",
"aq c #010701",
".c c #010801",
".j c #010901",
"ax c #020701",
"av c #020802",
".# c #020902",
".a c #020a02",
".x c #020b02",
".H c #020c02",
"#6 c #020d02",
"ah c #020d03",
"#y c #030e03",
".q c #030f03",
"an c #031103",
"ao c #031104",
".i c #031203",
".J c #031204",
".G c #031304",
".I c #041204",
".K c #041304",
".F c #041404",
"#I c #041504",
".e c #041604",
".y c #041605",
".L c #041704",
".E c #041905",
"aw c #051605",
"## c #051705",
".o c #051905",
".f c #051a05",
"ab c #051c06",
"#U c #051d06",
".b c #051e06",
".X c #061d06",
".k c #061f06",
".w c #062107",
"ag c #072307",
"#P c #072408",
"#j c #072508",
"#m c #072608",
"#3 c #072808",
".r c #082608",
".l c #082909",
".M c #082a08",
"ac c #082b09",
".z c #092d09",
"#a c #092e09",
"#x c #092f0a",
"#V c #0a330b",
".v c #0c3d0d",
".N c #0c3e0d",
"#7 c #0c400d",
".s c #0c410e",
"#l c #0d370d",
"#T c #0d370e",
"#M c #0d440e",
".S c #0d470f",
"#v c #0e350f",
"#n c #0e470f",
"a. c #0e480f",
"ai c #0f4d10",
".Y c #104e11",
"#Y c #125614",
".W c #134614",
"#Z c #134a14",
"ap c #136515",
"al c #19411a",
"#b c #1c641e",
"a# c #1c6f1e",
"#R c #1d4b1f",
"#C c #1d551e",
"ar c #1d5a1d",
"#F c #1f3d20",
"ae c #1f481f",
".D c #1f4e1f",
"#. c #1f6220",
"#N c #205d22",
"#9 c #206d22",
"#G c #214a22",
".h c #254725",
".T c #265826",
".g c #294b2a",
"#o c #296b2b",
"#J c #2c602d",
"#t c #2e7830",
"#B c #2f8731",
".A c #306531",
"#p c #326d33",
"au c #327734",
"#s c #329334",
"af c #338d35",
"#c c #349937",
"#4 c #356335",
".n c #367e37",
".R c #377138",
"#0 c #38723a",
".V c #3a613b",
"at c #3c623d",
"#5 c #3c643d",
".U c #3d633e",
"as c #447245",
"#2 c #466747",
"#E c #477149",
".u c #48934a",
"aa c #498a4a",
".C c #49944b",
".Q c #4b994c",
".Z c #4bab4c",
"#1 c #4c914e",
"#L c #4ca44d",
".8 c #507551",
".m c #508c50",
".5 c #519d53",
"#u c #51aa53",
"aj c #53af54",
"#D c #549556",
"#W c #558f56",
"#d c #56b058",
"#q c #57aa58",
".O c #5e935e",
"#z c #60aa62",
"#g c #60b462",
".6 c #62ae63",
"#Q c #638964",
"#X c #63b664",
"#A c #64b765",
"#H c #659366",
"#8 c #65b167",
"#w c #679367",
"#S c #679468",
"am c #689469",
"#k c #6a956b",
"ad c #6d956e",
"#r c #6dbb6f",
".t c #6eb970",
".9 c #739973",
".0 c #74be75",
"#h c #79c07a",
"#O c #7abe7c",
".B c #7ac17b",
".P c #7bc17c",
".4 c #7ec380",
"#K c #80c481",
".1 c #82c583",
".2 c #84c685",
"#f c #8ac88b",
".3 c #8bc98c",
"#e c #8cc98d",
".7 c #a6d5a6",
"#i c #bde0be",
"ak c #c0e1c0",
"QtQtQtQtQt.#.a.b.b.a.cQtQtQtQtQt",
"QtQtQtQt.d.e.f.g.h.f.iQtQtQtQtQt",
"QtQtQtQt.j.k.l.m.n.l.o.pQtQtQtQt",
"QtQtQtQt.q.r.s.t.u.v.w.x.d.dQtQt",
"QtQtQt.d.y.z.A.B.C.D.l.E.F.G.H.d",
".I.J.K.L.M.N.O.P.Q.R.S.T.U.V.W.X",
".Y.Z.0.1.2.2.3.4.5.6.7.8.f.f.9#.",
"###a#b#c#d.B#e#f#g#h#i#j.E.E#k#l",
"Qt.q#m#n#o#p#q#r#s#t#u.w#v.E#w#x",
"QtQt#y#j.S#z#A#B#C#D#E#F#G.E#H#x",
"Qt.d#I.z#J#K#L#M#N#O#P#Q#R.E#S#T",
"Qt.c#U#V#W#X#Y#Z#0#1.E#2#3.E#4#5",
"Qt#6#P#7#8#9#7a.a#aa.w#jab.Eacad",
".d#I#3aeaf#aagah.eaiajakal.Eam.N",
".canaoap.FaoaqQtQt#6.Larasatau#I",
"QtQtQt.dQtQtQtQtQtQtQtav.Iaw#yax"};
