/* XPM */
static char *coduo_xpm[]={
"16 16 168 2",
".# c #110500",
".a c #130500",
"Qt c #140600",
".d c #150802",
".b c #1a0800",
".f c #1e0900",
".p c #1e1008",
".e c #210900",
".l c #211611",
".i c #270b00",
".h c #291b15",
".Q c #2a1309",
".s c #2b0d00",
".y c #2c0d00",
".t c #2d0d00",
".5 c #2e1003",
".q c #2e1308",
".m c #2f0e00",
".x c #331d12",
".r c #371000",
"#c c #3a1404",
".N c #3b2012",
".P c #3c1200",
".1 c #3c1a09",
".6 c #3c1f13",
".w c #3d2d21",
".z c #3e1200",
".2 c #411300",
"#o c #421401",
".O c #471500",
".4 c #491500",
"#d c #4f1600",
".3 c #501700",
".R c #50392f",
"#A c #531800",
"#h c #542e1e",
".7 c #573b2f",
"#e c #581a00",
"#f c #591a00",
"#g c #5a1a00",
".c c #5a5043",
"#M c #60250c",
"#a c #623312",
".H c #625236",
"#p c #631d00",
"#X c #631e00",
"#q c #641d00",
"#r c #651d00",
"a# c #65280a",
"#s c #671e00",
"#P c #6c2000",
"#Y c #6c3313",
"#B c #6d2000",
"ao c #6e2000",
"#C c #6e2100",
"ad c #6e2605",
"#b c #6f3c18",
"#O c #702100",
"#t c #704f37",
"#D c #712100",
"#N c #732200",
".j c #735e51",
"#E c #742200",
"#5 c #762300",
"#T c #762605",
"#Q c #772300",
"#W c #783f1a",
"## c #78573a",
"#4 c #792300",
".0 c #7a4822",
"#R c #7b2400",
"an c #7c2603",
"#3 c #7d2500",
"#S c #7e2500",
"#n c #7f4d2b",
"#2 c #812600",
"aj c #832600",
"#m c #835a37",
"#k c #845d44",
"#z c #846547",
"#6 c #852700",
".I c #86783b",
"ai c #882800",
"#7 c #892900",
".8 c #8a7660",
".A c #8b7c69",
"au c #8c2a00",
"ah c #8d2a00",
"#1 c #8d4c2a",
"#H c #8d5834",
"#8 c #8f2a00",
"#9 c #904425",
"ak c #912a00",
"av c #916346",
"aa c #932b00",
"ag c #942b00",
"ay c #952c00",
"al c #982d00",
"ax c #9d2e00",
"ac c #a02f00",
"#w c #a06630",
"#V c #a07649",
"am c #a12f00",
"az c #a23000",
".S c #a29589",
".W c #a38e74",
"#i c #a48445",
"aw c #a73100",
"#I c #a96732",
"ab c #ab3200",
"aA c #ac3300",
".n c #b0a38e",
"aL c #b23500",
"#x c #b7763f",
"aB c #b83600",
".Z c #b89476",
"ap c #b93600",
"#j c #b9a384",
"aC c #bb3700",
"#l c #bca389",
"#L c #bd9d77",
"aK c #bf3800",
".X c #bfb485",
"at c #c23900",
"aq c #c43900",
"#J c #c47e3a",
"as c #c63a00",
"ar c #c73a00",
".M c #c9a180",
"af c #cca775",
".J c #ccc297",
"a. c #ceb4a8",
"ae c #d0964f",
"#F c #d0b871",
"aD c #d23e00",
".K c #d4c595",
".Y c #d6c7a8",
".B c #d8c9b7",
"aJ c #d94000",
"aE c #dd4100",
"#y c #ddc39c",
"#v c #deca9a",
".g c #dfdcb2",
".T c #e0d3a9",
".v c #e0d9b0",
"#. c #e0d9d2",
".o c #e0dab0",
"aI c #e24300",
"#Z c #e49e4f",
"aF c #e54300",
".D c #e6d993",
"aH c #e74400",
"#u c #e7d782",
"aG c #e84500",
".G c #e8e4b6",
".L c #eed7be",
".k c #efedd6",
".u c #f2e4c1",
"#K c #f3c180",
".E c #f3eebc",
".F c #f4f4c2",
"#0 c #fae19a",
"#U c #fdf5ad",
"#G c #fef5d1",
".C c #fff3da",
".V c #ffffe6",
".U c #fffff9",
".9 c #fffffc",
"QtQtQtQtQtQtQt.#.aQtQtQtQtQtQtQt",
".b.b.b.b.b.b.b.c.d.b.b.b.b.b.b.b",
".e.e.e.e.e.e.f.g.h.e.e.e.e.e.e.e",
".i.i.i.i.i.i.j.k.l.i.i.i.i.i.i.i",
".m.m.m.m.m.m.n.o.p.q.m.m.m.m.m.m",
".r.s.s.t.r.m.u.v.w.x.s.s.s.y.m.r",
".z.A.B.C.D.E.F.G.H.I.J.K.L.M.N.z",
".O.P.Q.R.S.T.U.V.W.X.Y.Z.0.1.2.O",
".3.3.4.5.6.7.8.9#.###a#b#c#d.3.3",
"#e#f#g#f#h#i#j#k#l#m#n#o#g#g#f#e",
"#p#q#r#s#t#u#v#w#x#y#z#A#s#r#q#p",
"#B#C#D#E#F#G#H#I#J#K#L#M#N#O#C#P",
"#Q#R#S#T#U#V#W#X#Y#Z#0#1#2#3#4#5",
"#6#7#8#9a.a#aaabacadaeafagahaiaj",
"akalamanaoapaqarasatauavawaxay#8",
"azaAaBaCaDaEaFaGaHaIaJaBaKaLawax"};
