/* XPM */
static char * dday_xpm[] = {
"16 16 205 2",
"  	c #5B5C2F",
". 	c #5B592C",
"+ 	c #4D4C25",
"@ 	c #404123",
"# 	c #3C401F",
"$ 	c #3C401C",
"% 	c #444823",
"& 	c #474A23",
"* 	c #454822",
"= 	c #434621",
"- 	c #444521",
"; 	c #3E3E1C",
"> 	c #464523",
", 	c #464824",
"' 	c #56562A",
") 	c #5F612F",
"! 	c #4D4B25",
"~ 	c #151909",
"{ 	c #0F1405",
"] 	c #161A0A",
"^ 	c #3B4323",
"/ 	c #141A0A",
"( 	c #12130A",
"_ 	c #1A1E0E",
": 	c #494E25",
"< 	c #070701",
"[ 	c #444A23",
"} 	c #0F1108",
"| 	c #43431F",
"1 	c #070B04",
"2 	c #57572A",
"3 	c #3E421E",
"4 	c #121607",
"5 	c #59592D",
"6 	c #070C01",
"7 	c #252412",
"8 	c #131409",
"9 	c #595C2F",
"0 	c #050900",
"a 	c #474821",
"b 	c #1E2211",
"c 	c #3E3E1E",
"d 	c #000000",
"e 	c #454626",
"f 	c #42401C",
"g 	c #13160B",
"h 	c #3F401E",
"i 	c #0A0F05",
"j 	c #4A4D27",
"k 	c #101306",
"l 	c #4A4C23",
"m 	c #121408",
"n 	c #454824",
"o 	c #1E1D0C",
"p 	c #1D200C",
"q 	c #080803",
"r 	c #545325",
"s 	c #171A0A",
"t 	c #4C4C24",
"u 	c #424424",
"v 	c #3B3C19",
"w 	c #242712",
"x 	c #292F16",
"y 	c #4D5028",
"z 	c #434520",
"A 	c #55582A",
"B 	c #464A21",
"C 	c #474722",
"D 	c #40411D",
"E 	c #3B3B19",
"F 	c #3B3C1C",
"G 	c #414422",
"H 	c #494920",
"I 	c #4C4D28",
"J 	c #575728",
"K 	c #666836",
"L 	c #131109",
"M 	c #4B4D25",
"N 	c #5D602F",
"O 	c #5B5C29",
"P 	c #55572B",
"Q 	c #515025",
"R 	c #4A4E26",
"S 	c #464721",
"T 	c #3E3C18",
"U 	c #363919",
"V 	c #3C3C1F",
"W 	c #4C4D25",
"X 	c #535429",
"Y 	c #585B2B",
"Z 	c #645F30",
"` 	c #202212",
" .	c #5E622C",
"..	c #545629",
"+.	c #504F25",
"@.	c #4A4A20",
"#.	c #434821",
"$.	c #3F3D19",
"%.	c #383819",
"&.	c #515024",
"*.	c #58572E",
"=.	c #515227",
"-.	c #5C5B28",
";.	c #2D311A",
">.	c #010000",
",.	c #565A2D",
"'.	c #5C5B2A",
").	c #595F2D",
"!.	c #585829",
"~.	c #4D5327",
"{.	c #484A23",
"].	c #373718",
"^.	c #3A3918",
"/.	c #454923",
"(.	c #5A5D30",
"_.	c #41441D",
":.	c #53562F",
"<.	c #5D5D2C",
"[.	c #4C4E25",
"}.	c #393818",
"|.	c #3A3919",
"1.	c #434521",
"2.	c #4E4E27",
"3.	c #5C5F2C",
"4.	c #4D5129",
"5.	c #070B03",
"6.	c #000100",
"7.	c #050401",
"8.	c #565829",
"9.	c #676431",
"0.	c #585929",
"a.	c #474823",
"b.	c #3B3A18",
"c.	c #424021",
"d.	c #444720",
"e.	c #515329",
"f.	c #64662F",
"g.	c #2E3119",
"h.	c #616230",
"i.	c #666333",
"j.	c #595928",
"k.	c #505127",
"l.	c #41411E",
"m.	c #313219",
"n.	c #454421",
"o.	c #4A4D20",
"p.	c #636130",
"q.	c #0F1008",
"r.	c #35381B",
"s.	c #62622E",
"t.	c #565629",
"u.	c #4A4F29",
"v.	c #383B19",
"w.	c #32331A",
"x.	c #2F2D16",
"y.	c #424821",
"z.	c #4D4F26",
"A.	c #575729",
"B.	c #5C5C31",
"C.	c #3C3C1C",
"D.	c #1F2110",
"E.	c #16170B",
"F.	c #60622D",
"G.	c #57582A",
"H.	c #464920",
"I.	c #343417",
"J.	c #2D2F14",
"K.	c #2D2B13",
"L.	c #414623",
"M.	c #5A5D2B",
"N.	c #2D2E15",
"O.	c #494D25",
"P.	c #635E2E",
"Q.	c #5B5E2D",
"R.	c #2C2B14",
"S.	c #58572A",
"T.	c #575829",
"U.	c #494B24",
"V.	c #292A12",
"W.	c #232610",
"X.	c #353518",
"Y.	c #3D421C",
"Z.	c #565927",
"`.	c #32361F",
" +	c #575627",
".+	c #575A2C",
"++	c #3F421D",
"@+	c #484823",
"#+	c #5D5B2E",
"$+	c #353719",
"%+	c #424124",
"&+	c #5C5A2C",
"*+	c #353318",
"=+	c #21230D",
"-+	c #21230C",
";+	c #292B10",
">+	c #2D2C14",
",+	c #262713",
"'+	c #282913",
")+	c #262813",
"!+	c #282914",
"~+	c #272913",
"{+	c #262712",
"]+	c #282911",
"^+	c #21240C",
"  . + @ # $ % & * = - ; > , ' ) ",
"! ~ { ] ^ / ( _ : : < [ } | 1 2 ",
"3 4 5 6 7 8 9 0 a b c b a d e e ",
"f g h i j k l m n o p q r s t u ",
"v w w x y w w x z b A b B b C D ",
"E F G H I J K L M N O P Q R S T ",
"U V = W X Y Z d `  .O ..+.@.#.$.",
"%.- &.*.=.-.;.d >.,.'.).!.~.{.].",
"^./.(._.d d d d d d d d :.<.[.}.",
"|.1.2.3.4.5.d d d 6.7.8.9.0.a.^.",
"b.c.d.e.f.g.d d d d h.i.j.k.l.%.",
"m.n.o...p.q.d d d d r.s.t.u.v.w.",
"x.y.z.A.B.d d C.D.d E.F.G.H.I.J.",
"K.L.{.M.N.d O.P.Q.R.d S.T.U.I.V.",
"W.X.Y.Z.`. +.+++@+#+$+%+&+* *+=+",
"-+;+>+,+'+)+)+!+~+{+!+'+,+]+;+^+"};
