/* XPM */
static char * ddnet_xpm[] = {
"16 16 66 1",
" 	c None",
".	c #000000",
"+	c #000000",
"@	c #020202",
"#	c #050503",
"$	c #050301",
"%	c #000000",
"&	c #000000",
"*	c #000000",
"=	c #724300",
"-	c #AC6F00",
";	c #875100",
">	c #050403",
",	c #A85700",
"'	c #522F00",
")	c #0F0F0D",
"!	c #C17D00",
"~	c #3D2700",
"{	c #985700",
"]	c #040301",
"^	c #6A3900",
"/	c #040303",
"(	c #06090C",
"_	c #3D2800",
":	c #562E00",
"<	c #030506",
"[	c #000000",
"}	c #321B00",
"|	c #020303",
"1	c #0C0A09",
"2	c #0C161F",
"3	c #0F0A05",
"4	c #B35500",
"5	c #10212F",
"6	c #234156",
"7	c #5194C3",
"8	c #21405A",
"9	c #4883AD",
"0	c #33658F",
"a	c #2B5370",
"b	c #162C3E",
"c	c #3B6D8F",
"d	c #0F1E2A",
"e	c #284D6B",
"f	c #21415A",
"g	c #2B5579",
"h	c #2E5A7E",
"i	c #3C739F",
"j	c #1D3B55",
"k	c #FFA800",
"l	c #FBA000",
"m	c #D78C00",
"n	c #ED9800",
"o	c #7C4900",
"p	c #F67500",
"q	c #D06300",
"r	c #E36E00",
"s	c #59A3D7",
"t	c #65BAF6",
"u	c #6BC4FF",
"v	c #60B0E9",
"w	c #4897DE",
"x	c #4C9FE9",
"y	c #428ACB",
"z	c #3C7FBB",
"A	c #FFFFFF",
"   {-{   {-,    ",
"  -n!mn{ nmmn!  ",
"  !m_ mmon^ -n= ",
"  m!  !m{m' {n= ",
"  q{  m!!m  ,r' ",
"  r= 4ro!-  r4  ",
"  rqqqo'qqqq4~  ",
" b=^:_  ^^^'    ",
" 7vh 97      9b ",
" st7 77  i  9vh ",
" v9sesi9s7vhsv9 ",
" se7hvcvi0shyz  ",
"0yjizw0v99ijy0  ",
"iz hwyey0gebyib ",
"hh  i050zie 0ij ",
"                "};
