/* XPM */
static char * doom3_xpm[] = {
"16 16 17 1",
" 	c None",
".	c #000100",
"+	c #330000",
"@	c #680000",
"#	c #323331",
"$	c #663403",
"%	c #653332",
"&	c #4D4B17",
"*	c #9B2E00",
"=	c #9A3333",
"-	c #DC4041",
";	c #9A6532",
">	c #CC662F",
",	c #F15726",
"'	c #CD9830",
")	c #FF995D",
"!	c #DDAA68",
"     #%-=       ",
"   =>$$.+$>>    ",
"  ');*@.+$!;>#  ",
" %&>)>@@$',*>>  ",
" >+$=*>@>$).*=# ",
"%*.+-$+>===@+*= ",
"$+$+**>+--*&+@* ",
",+.*>=@+$*-=$@, ",
"*$-$+,@>$>+*';, ",
" )>==->=>=,>>!= ",
" ;@+.*->-.$+.=$ ",
" =$+>*;$;*.+%*  ",
"  *-*$+,$$@=$#  ",
"  #*;*;!+*$*#   ",
"     $=)-$%     ",
"                "};
