/* XPM */
static char * error_xpm[] = {
"7 16 2 1",
" 	c None",
".	c #FF0000",
"       ",
"  ...  ",
"  .... ",
" ..... ",
" ..... ",
" ..... ",
" ..... ",
" ....  ",
" ....  ",
"  ..   ",
"  ..   ",
"       ",
" ...   ",
" ...   ",
" ...   ",
"       "};
