/* XPM */
static char * etl_xpm[] = {
"16 16 39 1",
" 	c #302328",
".	c #2F2329",
"+	c #302429",
"@	c #302428",
"#	c #302329",
"$	c #332328",
"%	c #5E221F",
"&	c #492323",
"*	c #352327",
"=	c #3C2326",
"-	c #FE1E00",
";	c #FC1E00",
">	c #902115",
",	c #8C2116",
"'	c #65221E",
")	c #DF1E06",
"!	c #D41F08",
"~	c #B1200F",
"{	c #342328",
"]	c #A62011",
"^	c #862117",
"/	c #7F2119",
"(	c #412325",
"_	c #DA1F06",
":	c #6A221D",
"<	c #372327",
"[	c #E41E05",
"}	c #DB1F06",
"|	c #C91F0A",
"1	c #392327",
"2	c #592220",
"3	c #67221D",
"4	c #322328",
"5	c #812118",
"6	c #CE1F09",
"7	c #E41E04",
"8	c #F81E01",
"9	c #70221C",
"0	c #2F2429",
" .++++++++++++.@",
"#++$%&*++++++++#",
"+++=--;>++++++++",
"+++=--,+++++++++",
"+++=--'+++++++++",
"+++=--)!!!!!~{++",
"+++=--]^^^^/(+++",
"+++=------_(++++",
"+++=--]^^:<+++++",
"+++=--[}|(12++++",
"+++=--344456++++",
"+++=-------7++++",
"+++=-------8 +++",
"+++{999999994+++",
"#++++++++++++++#",
"+++++++++++++++0"};
