/* XPM */
static char * etl_xpm[] = {
"17 17 3 1",
" 	c None",
".	c #000000",
"+	c #303030",
"                 ",
"      .   .      ",
"      .. ..      ",
"      .. ..      ",
"..... .   . .....",
"   .  .   .  .   ",
" ......   ...... ",
"                 ",
"  ....     ....  ",
"     .     .     ",
" +++ . +++ . +   ",
" +   .  +  . +   ",
" ++  .  + .. +   ",
" +   .. +  . +   ",
" +++ .  +  . +++ ",
"                 ",
"                 "};
