/* XPM */
static char * etl_xpm[] = {
"16 16 2 1",
" 	c None",
".	c #FF1E00",
" .....          ",
" ......         ",
" ....           ",
" .............. ",
" .............. ",
" ....           ",
" ...........    ",
" ..........     ",
" ....           ",
" ........       ",
" .......        ",
" ....      .    ",
" ....     ...   ",
" ............   ",
" ............   ",
" ............   "};
