/* XPM */
static char *gamespy3d_xpm[]={
"16 16 3 1",
"# c #008000",
"a c #00ff00",
". c #ffffff",
"................",
"..####..........",
".#.aaa#.........",
".#a...aa........",
".#a.............",
".#a.####........",
".#a...#aa.####..",
".#a...#a.#.aaa#.",
".#a...#a.#a....a",
"..####a..#a.....",
"..aaaa....####..",
"...........aaa#.",
"..............#a",
".........#....#a",
"..........####.a",
"...........aaaa."};
