/* XPM */
static char * green_plus_xpm[] = {
"9 9 2 1",
".	c None",
"+	c #007000",
".........",
"....+....",
"....+....",
"....+....",
".+++++++.",
"....+....",
"....+....",
"....+....",
"........."};
