/* XPM */
static char * group_blue_xpm[] = {
"16 16 3 1",
" 	c None",
".	c #000000",
"+	c #3048FF",
"                ",
"     ......     ",
"    .++++++.    ",
"   .++++++++.   ",
"  .++++++++++.  ",
" .++++++++++++. ",
" .++++++++++++. ",
" .++++++++++++. ",
" .++++++++++++. ",
" .++++++++++++. ",
" .++++++++++++. ",
"  .++++++++++.  ",
"   .++++++++.   ",
"    .++++++.    ",
"     ......     ",
"                "};
