/* XPM */
static char * hex_xpm[] = {
"17 17 2 1",
" 	c None",
".	c #800000",
"                 ",
"    ..         . ",
"     ..       .  ",
"     ..      ..  ",
"      ..    ..   ",
"       .. ...    ",
"        ....     ",
"        ...      ",
"       ....      ",
"      ... ..     ",
"     ...  ..     ",
"     ..    ..    ",
"    ..      .    ",
"   ..        .   ",
"  .          .   ",
"                 ",
"                 "};
