/* XPM */
static char * iourt_xpm[] = {
"17 17 175 2",
"  	c None",
". 	c #353F4B",
"+ 	c #212D40",
"@ 	c #3B4D6A",
"# 	c #A3A3A3",
"$ 	c #A0A0A0",
"% 	c #848484",
"& 	c #1D4481",
"* 	c #113B7D",
"= 	c #204682",
"- 	c #1F4683",
"; 	c #294C86",
"> 	c #999B9C",
", 	c #000000",
"' 	c #426393",
") 	c #456493",
"! 	c #456393",
"~ 	c #446191",
"{ 	c #446392",
"] 	c #446393",
"^ 	c #436392",
"/ 	c #446293",
"( 	c #436193",
"_ 	c #6981A2",
": 	c #A6A6A6",
"< 	c #778295",
"[ 	c #0C3279",
"} 	c #00286F",
"| 	c #002970",
"1 	c #002870",
"2 	c #3D5B8D",
"3 	c #002873",
"4 	c #00246E",
"5 	c #00296F",
"6 	c #00286E",
"7 	c #163B7B",
"8 	c #A2A2A2",
"9 	c #A6A4A1",
"0 	c #0E3074",
"a 	c #00296B",
"b 	c #002A6B",
"c 	c #00296D",
"d 	c #062D6F",
"e 	c #A5A29E",
"f 	c #B6B4B0",
"g 	c #7B8699",
"h 	c #0B3171",
"i 	c #00296A",
"j 	c #00286C",
"k 	c #21437C",
"l 	c #A4A4A4",
"m 	c #A8A7A5",
"n 	c #05296D",
"o 	c #002665",
"p 	c #00266A",
"q 	c #002864",
"r 	c #284579",
"s 	c #9D9D9C",
"t 	c #A9A9A9",
"u 	c #9C9C9A",
"v 	c #072C6B",
"w 	c #002767",
"x 	c #002667",
"y 	c #1D3E74",
"z 	c #9C9C9D",
"A 	c #BBBBBB",
"B 	c #B6B6B7",
"C 	c #A6A7A9",
"D 	c #354F77",
"E 	c #002562",
"F 	c #002160",
"G 	c #7B8596",
"H 	c #7E8793",
"I 	c #002761",
"J 	c #00215E",
"K 	c #334D7D",
"L 	c #A1A09D",
"M 	c #A4A5A5",
"N 	c #A8A8A8",
"O 	c #ABABAB",
"P 	c #495C7F",
"Q 	c #00225C",
"R 	c #0D2E66",
"S 	c #A5A29F",
"T 	c #9C9C9C",
"U 	c #122E64",
"V 	c #00245B",
"W 	c #556889",
"X 	c #9E9D9B",
"Y 	c #A7A7A7",
"Z 	c #9A9A9A",
"` 	c #B7B7B7",
" .	c #B6B6B6",
"..	c #A1A1A1",
"+.	c #A5A5A5",
"@.	c #667389",
"#.	c #001D56",
"$.	c #3E5476",
"%.	c #9D9D9D",
"&.	c #929394",
"*.	c #022859",
"=.	c #5E728C",
"-.	c #9E9D9C",
";.	c #AAAAAA",
">.	c #A4A3A3",
",.	c #9B9B9B",
"'.	c #D5D5D5",
").	c #9F9F9F",
"!.	c #828793",
"~.	c #00174F",
"{.	c #4C5E7F",
"].	c #A0A5A7",
"^.	c #A1A1A0",
"/.	c #697685",
"(.	c #788195",
"_.	c #A5A6A7",
":.	c #8F97A3",
"<.	c #979799",
"[.	c #19325A",
"}.	c #9E9E9E",
"|.	c #9E9D9F",
"1.	c #092855",
"2.	c #B1AFAA",
"3.	c #A3A4A7",
"4.	c #8B929E",
"5.	c #032050",
"6.	c #001D50",
"7.	c #9DA0A8",
"8.	c #8E959E",
"9.	c #657182",
"0.	c #011D50",
"a.	c #102B55",
"b.	c #ACAAA6",
"c.	c #011D4C",
"d.	c #041E4C",
"e.	c #294061",
"f.	c #6A7484",
"g.	c #001B48",
"h.	c #001A4B",
"i.	c #011B4C",
"j.	c #545E74",
"k.	c #001A4A",
"l.	c #001E4A",
"m.	c #102751",
"n.	c #B8B8B8",
"o.	c #7F8693",
"p.	c #7F8792",
"q.	c #112951",
"r.	c #001845",
"s.	c #001944",
"t.	c #001641",
"u.	c #001A45",
"v.	c #001C44",
"w.	c #001544",
"x.	c #001A44",
"y.	c #0E244B",
"z.	c #A3A3A5",
"A.	c #85878D",
"B.	c #1E3252",
"C.	c #001841",
"D.	c #001940",
"E.	c #001A41",
"F.	c #001642",
"G.	c #001741",
"H.	c #001941",
"I.	c #001740",
"J.	c #0E2346",
"K.	c #061A3C",
"L.	c #03173C",
"M.	c #081D3F",
"N.	c #091D40",
"O.	c #091E40",
"P.	c #091C40",
"Q.	c #091C3F",
"R.	c #182647",
". + @                             ",
"# $ % & * = - ;                   ",
"> , , ' ) ! ~ { ] ^ ) / / ( _     ",
": < [ } | } 1 2 3 4 | 5 6 | 7     ",
"8 9 0 a b c d e f g h i j a k     ",
"l m n o p q r s t u v w x y z :   ",
"A B C D E F G l # H I J K L M N : ",
"O : $ P Q R S O T U V W X Y : Z ` ",
" ...+.@.#.$.%.t &.*.=.-.;.>.,.    ",
"'.).: !.~.{.].^./.(._.:.$ <.[.    ",
"  }.Y |.1.2.3.4.5.6.7.8.9.0.a.    ",
"  Z ;.b.c.d.e.f.g.h.i.j.k.l.m.    ",
"  n.o.p.q.r.s.t.u.v.v.w.x.x.y.    ",
"  }.z.A.B.C.D.E.F.G.H.C.I.C.J.    ",
"    K.L.M.N.O.N.N.O.P.N.O.Q.R.    ",
"                                  ",
"                                  "};
