/* XPM */
static char * jk2_xpm[] = {
"17 17 16 1",
" 	c #020500",
".	c #10110E",
"+	c #181917",
"@	c #282A27",
"#	c #434543",
"$	c #305C75",
"%	c #5C5E5C",
"&	c #7B8084",
"*	c #7A859C",
"=	c #8094C3",
"-	c #6B9BE7",
";	c #8C9BB5",
">	c #AAB6C8",
",	c #9DBFF9",
"'	c #A9C7EE",
")	c #CEE6FF",
".. .@#%#$##@+.   ",
" ..+@$&$####@.   ",
" .++@$&$%%&$@. ..",
"  +@@$>$%$&$@..+.",
". +@@$>$%$>$@++. ",
".++@#$'$%$>$@@+  ",
" +@@#*'$%$'$#@.  ",
" .+##&'&%$'&#@+.+",
"++@#%='*&&'&##@+ ",
"@@#%&'),=*';%#@. ",
"+@#&;,)-,-''&#@+.",
"@##;=,),''),=&#@@",
"+@#;-')',,),-;#@+",
".@#&,,)'',)'-;##@",
"+@#%*,),',),,&#@+",
"++@#%*>=;,)'*%@+ ",
" .+##%%%&*>*%#@+ "};
