/* XPM */
static char * jk3_xpm[] = {
"16 16 16 1",
" 	c #0A0503",
".	c #032970",
"+	c #5877F1",
"@	c #0F1A32",
"#	c #1D51A6",
"$	c #5C90E8",
"%	c #9AC7F9",
"&	c #8393B7",
"*	c #612851",
"=	c #AF83C0",
"-	c #AE7385",
";	c #51121C",
">	c #DF1B2E",
",	c #E54B70",
"'	c #881229",
")	c #B40310",
"    .+.  .+.    ",
"  @..+#@@.+.    ",
" @..#++...+.    ",
"@...+$#..++.@@  ",
"...##%$+#+$+..@ ",
".#+$%$%$$$$+#..@",
"$$%%%#%%%%%$+#..",
"##+$%%%%%%%$+$#.",
"@#&+$%%%%%%%%$$#",
"@@##$%$%%$$%%$$#",
" @@*===+==%-&*#.",
"  ;>---==----,;@",
"  ;>',,&-,&,'>; ",
" ;)>'>,;,,*>'); ",
" '))))')>))'))' ",
"  ; ;;;;;;;  ;  "};
