/* XPM */
static char * lan_xpm[] = {
"16 16 97 2",
"  	c None",
". 	c #838383",
"+ 	c #BABABA",
"@ 	c #989898",
"# 	c #000000",
"$ 	c #4B4B4C",
"% 	c #A7A7A7",
"& 	c #9D9D9D",
"* 	c #6C6C6C",
"= 	c #676767",
"- 	c #3E3B3B",
"; 	c #7F8080",
"> 	c #7F7F7F",
", 	c #6B6B6B",
"' 	c #505050",
") 	c #919292",
"! 	c #8C8C8C",
"~ 	c #767575",
"{ 	c #B5B5B5",
"] 	c #D8D8D7",
"^ 	c #ADACAC",
"/ 	c #6E6E6E",
"( 	c #6F6F6F",
"_ 	c #474747",
": 	c #848484",
"< 	c #7A7A7A",
"[ 	c #8E8E8E",
"} 	c #D9DADB",
"| 	c #FBFFFF",
"1 	c #FFFFFF",
"2 	c #FAFEFF",
"3 	c #CECFD0",
"4 	c #878787",
"5 	c #555656",
"6 	c #626262",
"7 	c #A2A2A2",
"8 	c #E3E4E4",
"9 	c #F1EBE9",
"0 	c #DCCABF",
"a 	c #BEA192",
"b 	c #C7B1AA",
"c 	c #F0EBE9",
"d 	c #DFDFDF",
"e 	c #979696",
"f 	c #5C5B5B",
"g 	c #706F6F",
"h 	c #5E5D5D",
"i 	c #D0D0D0",
"j 	c #F2F3F4",
"k 	c #D0BAAA",
"l 	c #B58B6E",
"m 	c #CA946D",
"n 	c #874017",
"o 	c #C4ACA2",
"p 	c #F4F4F5",
"q 	c #C4C4C4",
"r 	c #585757",
"s 	c #646464",
"t 	c #CECECE",
"u 	c #F1F2F3",
"v 	c #BEA58E",
"w 	c #AE8159",
"x 	c #F4AA6A",
"y 	c #852500",
"z 	c #B4978B",
"A 	c #F1F1F2",
"B 	c #CAC9C9",
"C 	c #565656",
"D 	c #676867",
"E 	c #CCCCCC",
"F 	c #EFF1F2",
"G 	c #B59E84",
"H 	c #A2642C",
"I 	c #E08236",
"J 	c #7D1E00",
"K 	c #B89C90",
"L 	c #EFEFEF",
"M 	c #575757",
"N 	c #606060",
"O 	c #D1D1D1",
"P 	c #AE957D",
"Q 	c #954100",
"R 	c #D36616",
"S 	c #721A00",
"T 	c #B1978D",
"U 	c #F0F1F1",
"V 	c #CFCECE",
"W 	c #5A5959",
"X 	c #555555",
"Y 	c #656565",
"Z 	c #4B443E",
"` 	c #402818",
" .	c #513421",
"..	c #382519",
"+.	c #4D4543",
"@.	c #636362",
"#.	c #595959",
"                                ",
"                .               ",
"        +     @ . .             ",
"        # $ % & * * =           ",
"        - ; & > , , * '         ",
"        ) ! ~ { ] ^ / ( _       ",
"      : < [ } | 1 2 3 4 , 5     ",
"    6 = 7 8 9 0 a b c d e f 5   ",
"  g g h i j k l m n o p q r 6 6 ",
"      s t u v w x y z A B C     ",
"      D E F G H I J K L B M     ",
"      N O u P Q R S T U V W     ",
"      D X Y Z `  ...+.@.#.W     ",
"                                ",
"                                ",
"                                "};
