/* XPM */
static char *locked_punkbuster_xpm[]={
"34 17 75 2",
"Qt c None",
".3 c #0d1350",
".V c #101d5b",
".h c #132c6b",
".N c #162e6e",
".Z c #163071",
".4 c #182562",
".Q c #203f7f",
".c c #22255f",
".P c #244483",
".p c #244988",
".u c #25326b",
"#. c #254f93",
".U c #2564ab",
".Y c #2763aa",
".d c #2a3871",
".K c #2b5696",
".S c #2c65a9",
".9 c #2d5696",
".B c #30376e",
"## c #3065a8",
"#c c #31589e",
".0 c #324379",
"#a c #346fb1",
".l c #36528b",
".e c #38518b",
".M c #3a6aa8",
".O c #3b629d",
".w c #3c65a2",
".6 c #3c6eae",
".G c #406eaa",
".R c #4073b1",
".t c #426da7",
"#f c #4475b4",
".8 c #461a54",
".i c #4a699e",
".A c #4b74ad",
".5 c #4e7ab2",
".L c #527cb2",
".W c #536092",
"#g c #56518c",
"#b c #585491",
".T c #5d376b",
"#e c #5d76af",
"#h c #5f538c",
".k c #5f87b8",
".q c #678bbc",
".C c #684c84",
".J c #6997c9",
".2 c #6c427c",
".j c #6e8fbe",
".o c #781b4d",
".H c #7c739f",
".m c #7f0000",
".1 c #845d8e",
".s c #85a4cb",
".F c #8aadd3",
".D c #8da5c8",
".v c #8f2153",
".I c #8fb3d9",
".7 c #901444",
"#i c #981d4f",
".x c #98add1",
".z c #98b5d7",
"#d c #a1204f",
".a c #a8274f",
".X c #aa2d5d",
".b c #ae345b",
".n c #b33054",
".g c #b42f57",
".r c #c5c6de",
".E c #c9d2e8",
".y c #f0e4f0",
".f c #ff0000",
".# c #ffffff",
"QtQtQtQtQtQtQtQtQtQtQtQtQtQtQtQtQt.#.#.#.#.#.#.a.a.a.a.a.#.#.#.#.#.#",
"QtQtQtQtQtQtQtQtQtQtQtQtQtQtQtQtQt.#.#.#.#.b.b.#.c.d.e.#.b.a.#.#.#.#",
"QtQtQtQtQtQtQt.f.f.fQtQtQtQtQtQtQt.#.#.#.g.#.#.h.i.j.k.l.#.#.a.#.#.#",
"QtQtQtQtQtQt.f.m.m.m.fQtQtQtQtQtQt.#.#.n.a.#.o.p.q.r.s.t.u.#.#.a.#.#",
"QtQtQtQt.m.f.mQtQtQt.m.f.mQtQtQtQt.#.a.a.a.a.v.w.x.y.z.A.B.#.#.#.a.#",
"QtQtQtQt.m.f.mQtQtQt.m.f.mQtQtQtQt.#.b.#.a.a.a.C.D.E.F.G.#.#.#.#.b.#",
"QtQtQtQt.m.f.mQtQtQt.m.f.mQtQtQtQt.a.#.#.#.a.a.a.H.I.J.K.#.#.#.#.#.a",
"QtQtQt.m.m.m.m.m.m.m.m.m.m.mQtQtQt.a.#.#.#.#.a.a.a.L.M.N.#.#.#.#.#.a",
"QtQtQt.m.f.f.f.f.f.f.f.f.f.mQtQtQt.a.#.#.#.#.#.a.a.a.O.P.Q.#.#.#.#.a",
"QtQtQt.m.fQtQtQtQtQtQtQt.f.mQtQtQt.a.#.#.#.#.#.#.a.a.a.R.S.#.#.#.#.a",
"QtQtQt.m.f.f.f.f.f.f.f.f.f.mQtQtQt.a.#.#.#.#.#.#.T.a.a.a.U.V.#.#.#.a",
"QtQtQt.m.fQtQtQtQtQtQtQt.f.mQtQtQt.#.b.#.#.#.#.#.W.X.a.Y.Y.Z.#.#.b.#",
"QtQtQt.m.f.f.f.f.f.f.f.f.f.mQtQtQt.#.a.#.#.#.#.#.0.1.2.Y.Y.Y.#.#.a.#",
"QtQtQt.m.m.m.m.m.m.m.m.m.m.mQtQtQt.#.#.a.#.#.#.3.4.5.6.Y.Y.a.a.a.#.#",
"QtQtQtQtQtQtQtQtQtQtQtQtQtQtQtQtQt.#.#.#.a.7.8.9#.###a#b#c.a.a.#.#.#",
"QtQtQtQtQtQtQtQtQtQtQtQtQtQtQtQtQt.#.#.#.#.a#d#e#f#g#h#i.a.a.#.#.#.#",
"QtQtQtQtQtQtQtQtQtQtQtQtQtQtQtQtQt.#.#.#.#.#.#.a.a.a.a.a.#.#.#.#.#.#"};
