/* XPM */
static char * man_yellow_xpm[] = {
"9 17 2 1",
" 	c None",
".	c #00FF00",
"         ",
"         ",
"   ...   ",
"   . .   ",
"     .   ",
"    .    ",
"  .....  ",
" . ... . ",
" . ... . ",
" . ... . ",
" . ... . ",
"   . .   ",
"   . .   ",
"   . .   ",
"   . .   ",
"         ",
"         "};
