/* XPM */
static char * man_black_xpm[] = {
"9 17 2 1",
" 	c None",
".	c #000000",
"         ",
"         ",
"   ...   ",
"   ...   ",
"   ...   ",
"    .    ",
"  .....  ",
" . ... . ",
" . ... . ",
" . ... . ",
" . ... . ",
"   . .   ",
"   . .   ",
"   . .   ",
"   . .   ",
"         ",
"         "};
