/* XPM */
static char * mohaa_xpm[] = {
"16 16 17 1",
" 	c None",
".	c #150F0C",
"+	c #99762B",
"@	c #322E14",
"#	c #6D4922",
"$	c #D0B78A",
"%	c #5E5A30",
"&	c #B69F62",
"*	c #60522E",
"=	c #B88742",
"-	c #50391C",
";	c #8E7753",
">	c #7D5B1B",
",	c #35211B",
"'	c #9B8966",
")	c #966B36",
"!	c #7B5E3F",
"     .,#!@.     ",
"    @%'$$;%@    ",
"  .*'&'$$'&&*.  ",
"  *+&>;$&+*&'-  ",
" ,;=>-;'&;-*=+, ",
" *)**@''&'@-*)* ",
".%';''$';$''''*.",
".%;;&$'*%=$&)!*.",
",!@@>=+**+=!,@!,",
".#-@-==!>==---#.",
" ->-!&+>>)&!->- ",
" ,>>''*@@*'=)>, ",
"  -+;*,.,,*;!-  ",
"  .-;%-@@@-!-.  ",
"    ,->>>#@.    ",
"      .,,.      "};
