/* XPM */
static char * observe_xpm[] = {
"24 24 3 1",
" 	c None",
".	c #FFEF00",
"+	c #6F87DB",
"                        ",
"                        ",
"      .                 ",
"     ...                ",
"    .....               ",
"   .......              ",
"  ......... +++++       ",
" .........+++++++++     ",
"........+++++++++++++   ",
"  .....+++..+++++  +++  ",
"    ..++...++++ ++   ++ ",
"      +....+++++++    + ",
"      ++...+++++++   ++ ",
"       ++...+++++   ++  ",
"      ..+++++++++++++   ",
"     .....+++++++++     ",
"      ......+++++       ",
"        .......         ",
"          ......        ",
"            .....       ",
"              ....      ",
"                ...     ",
"                  ..    ",
"                        "};
