/* XPM */
static char * openttd_xpm[] = {
"16 16 17 1",
" 	c None",
".	c #4D3835",
"+	c #6E5029",
"@	c #52602A",
"#	c #866747",
"$	c #539B34",
"%	c #A1805B",
"&	c #F47006",
"*	c #DB873F",
"=	c #5DD036",
"-	c #F79236",
";	c #CBA47F",
">	c #F4A757",
",	c #C1B3A4",
"'	c #DECDB9",
")	c #E2E5E3",
"!	c #F2FFFF",
"       .        ",
"       %#       ",
"      %>>#      ",
"     %>%;>#     ",
"    %>%)'%>#    ",
"   #>,)')!>>+   ",
"  #>>,),;,;--+  ",
" #>>-*)!)%-&-&+ ",
" +---%*;)!;&&&. ",
" $@&&,'%;''&&@$ ",
" $=@&;))))-&@=$ ",
"  $=+&&;'&&@=$  ",
"   ==+&**&@=$   ",
"    ==+&&+=$    ",
"     $ ++ $     ",
"                "};
