/* XPM */
static char *openarena_xpm[] = {
/* columns rows colors chars-per-pixel */
"16 16 6 1",
"  c #003D8E",
". c #0420AC",
"X c #003DE4",
"o c #0082F6",
"O c #A2FEFE",
"+ c None",
/* pixels */
"++++++++++++++++",
"++++++++++++++++",
"++++++++++++++++",
"+++ X. X .X ++++",
"+oX++++O++++Xo++",
"o+++++o+o+++++o+",
"+oX+++X+X+++Xo++",
"+++Xoo+++ooX++++",
"+++++o+o+o++++++",
"+++++X+X+X++++++",
"+++++ +++ ++++++",
"++++X+++++X+++++",
"++++++++++++++++",
"++++++++++++++++",
"++++++++++++++++",
"++++++++++++++++"
};
