/* XPM */
static char * pfilter_cfg_xpm[] = {
"24 24 4 1",
" 	c None",
".	c #000000",
"+	c #FF0000",
"@	c #00B000",
"       ....        ...  ",
"    +  ....        ...  ",
"    ++ ....        ...  ",
"+++++++....         .   ",
"++++++++...       ..... ",
"+++++++++..      . ... .",
"++++++++...      . ... .",
"+++++++....      . ... .",
"    ++ ....      . ... .",
"    +  ....  @     . .  ",
"       ....  @@    . .  ",
"  @@@@@@@@@@@@@@   . .  ",
"  @@@@@@@@@@@@@@@  . .  ",
"  @@@@@@@@@@@@@@@@      ",
"  @@@@@@@@@@@@@@@       ",
"  @@@@@@@@@@@@@@      . ",
"       ....  @@      .. ",
"       ....  @      ... ",
"       ....        .... ",
"                  ..... ",
"                 ...... ",
"                ....... ",
"               ........ ",
"                        "};
