/* XPM */
static char * postal2_xpm[] = {
"16 16 8 1",
" 	c None",
".	c #6F1010",
"+	c #92090B",
"@	c #E20608",
"#	c #CE0808",
"$	c #B00A0C",
"%	c #550C0C",
"&	c #C20607",
"                ",
"                ",
"            ..  ",
" +@@@@#+   ++$. ",
" %#@+$@@.  % +. ",
"  &&  +@+   +&. ",
"  &&  +@&  .$+  ",
"  $#..&@$ %&$+% ",
"  $@@#&+  .+$+% ",
"  $@+.          ",
" %#@+           ",
" .@@#           ",
" %$++           ",
"                ",
"                ",
"                "};
