/* XPM */
static char *punkbuster_xpm[]={
"17 17 72 2",
".0 c #0d1350",
".S c #101d5b",
".f c #132c6b",
".K c #162e6e",
".W c #163071",
".1 c #182562",
".N c #203f7f",
".b c #22255f",
".M c #244483",
".m c #244988",
".r c #25326b",
".7 c #254f93",
".R c #2564ab",
".V c #2763aa",
".c c #2a3871",
".H c #2b5696",
".P c #2c65a9",
".6 c #2d5696",
".y c #30376e",
".8 c #3065a8",
"## c #31589e",
".X c #324379",
".9 c #346fb1",
".j c #36528b",
".d c #38518b",
".J c #3a6aa8",
".L c #3b629d",
".t c #3c65a2",
".3 c #3c6eae",
".D c #406eaa",
".O c #4073b1",
".q c #426da7",
"#c c #4475b4",
".5 c #461a54",
".g c #4a699e",
".x c #4b74ad",
".2 c #4e7ab2",
".I c #527cb2",
".T c #536092",
"#d c #56518c",
"#. c #585491",
".Q c #5d376b",
"#b c #5d76af",
"#e c #5f538c",
".i c #5f87b8",
".n c #678bbc",
".z c #684c84",
".G c #6997c9",
".Z c #6c427c",
".h c #6e8fbe",
".l c #781b4d",
".E c #7c739f",
".Y c #845d8e",
".p c #85a4cb",
".C c #8aadd3",
".A c #8da5c8",
".s c #8f2153",
".F c #8fb3d9",
".4 c #901444",
"#f c #981d4f",
".u c #98add1",
".w c #98b5d7",
"#a c #a1204f",
".# c #a8274f",
".U c #aa2d5d",
".a c #ae345b",
".k c #b33054",
".e c #b42f57",
".o c #c5c6de",
".B c #c9d2e8",
".v c #f0e4f0",
"Qt c #ffffff",
"QtQtQtQtQtQt.#.#.#.#.#QtQtQtQtQtQt",
"QtQtQtQt.a.aQt.b.c.dQt.a.#QtQtQtQt",
"QtQtQt.eQtQt.f.g.h.i.jQtQt.#QtQtQt",
"QtQt.k.#Qt.l.m.n.o.p.q.rQtQt.#QtQt",
"Qt.#.#.#.#.s.t.u.v.w.x.yQtQtQt.#Qt",
"Qt.aQt.#.#.#.z.A.B.C.DQtQtQtQt.aQt",
".#QtQtQt.#.#.#.E.F.G.HQtQtQtQtQt.#",
".#QtQtQtQt.#.#.#.I.J.KQtQtQtQtQt.#",
".#QtQtQtQtQt.#.#.#.L.M.NQtQtQtQt.#",
".#QtQtQtQtQtQt.#.#.#.O.PQtQtQtQt.#",
".#QtQtQtQtQtQt.Q.#.#.#.R.SQtQtQt.#",
"Qt.aQtQtQtQtQt.T.U.#.V.V.WQtQt.aQt",
"Qt.#QtQtQtQtQt.X.Y.Z.V.V.VQtQt.#Qt",
"QtQt.#QtQtQt.0.1.2.3.V.V.#.#.#QtQt",
"QtQtQt.#.4.5.6.7.8.9#.##.#.#QtQtQt",
"QtQtQtQt.##a#b#c#d#e#f.#.#QtQtQtQt",
"QtQtQtQtQtQt.#.#.#.#.#QtQtQtQtQtQt"};
