/* XPM */
static char * q2_xpm[] = {
"17 17 2 1",
" 	c None",
".	c #006060",
"                 ",
"    .       .    ",
"   .         .   ",
"  .           .  ",
" .             . ",
" .             . ",
" .             . ",
" .   ... ...   . ",
" ..   .   .   .. ",
"  ..  .   .  ..  ",
"   ....   ....   ",
"    .........    ",
"      .....      ",
"      .   .      ",
"      .   .      ",
"      .   .      ",
"                 "};
