/* XPM */
static char * q3rally_xpm[] = {
"16 16 43 1",
" 	c None",
".	c #5E061B",
"+	c #870618",
"@	c #980D23",
"#	c #520F1F",
"$	c #6B2739",
"%	c #B83E5A",
"&	c #760A21",
"*	c #4A1224",
"=	c #43050D",
"-	c #BF0D26",
";	c #481A29",
">	c #4E1A29",
",	c #25040B",
"'	c #A10A2D",
")	c #A50F34",
"!	c #720818",
"~	c #AB0F25",
"{	c #580D1A",
"]	c #9D1D34",
"^	c #C41A38",
"/	c #9C1E38",
"(	c #25020B",
"_	c #240712",
":	c #230712",
"<	c #040307",
"[	c #700213",
"}	c #9A081D",
"|	c #8D0B1C",
"1	c #5E141E",
"2	c #280910",
"3	c #32060E",
"4	c #4A101C",
"5	c #8F1A2C",
"6	c #C2263F",
"7	c #3C0409",
"8	c #610D17",
"9	c #7C0A17",
"0	c #140305",
"a	c #290912",
"b	c #571930",
"c	c #81121D",
"d	c #420B12",
"                ",
"                ",
"                ",
"                ",
"                ",
"    ..+@#..$%   ",
" &*.  =-   ;>   ",
",')   !~{]^/    ",
" (_:<[}|123456  ",
"     789    0ab ",
"     c d        ",
"                ",
"                ",
"                ",
"                ",
"                "};
