/* XPM */
static char * quetoo_xpm[] = {
"17 17 78 1",
" 	c None",
".	c #5D8F94",
"+	c #5A9197",
"@	c #5A9095",
"#	c #4E8B8E",
"$	c #549398",
"%	c #4D878B",
"&	c #417E82",
"*	c #448588",
"=	c #46888C",
"-	c #438284",
";	c #36797B",
">	c #377C7D",
",	c #2F6D6F",
"'	c #377C7E",
")	c #347677",
"!	c #327174",
"~	c #347274",
"{	c #35797B",
"]	c #377A7D",
"^	c #266869",
"/	c #2C7576",
"(	c #2C7879",
"_	c #297172",
":	c #2C7778",
"<	c #266D6E",
"[	c #206464",
"}	c #1A5C5C",
"|	c #217172",
"1	c #1D6868",
"2	c #206E6E",
"3	c #1F6B6B",
"4	c #166363",
"5	c #196B6B",
"6	c #196767",
"7	c #1B6462",
"8	c #186161",
"9	c #176B6B",
"0	c #156362",
"a	c #166969",
"b	c #156666",
"c	c #0F6464",
"d	c #0F6362",
"e	c #0F6160",
"f	c #106262",
"g	c #106867",
"h	c #0E5E5E",
"i	c #0F6462",
"j	c #0E6261",
"k	c #0E5353",
"l	c #0D6463",
"m	c #0C5D5B",
"n	c #0C6160",
"o	c #0C5F5F",
"p	c #145C5B",
"q	c #0F6463",
"r	c #0D6665",
"s	c #0B5E5C",
"t	c #0C6261",
"u	c #0B605E",
"v	c #0D6362",
"w	c #0C605F",
"x	c #0C6362",
"y	c #0D5F5F",
"z	c #105858",
"A	c #0B5D5C",
"B	c #094F4F",
"C	c #094747",
"D	c #0B5959",
"E	c #135E5C",
"F	c #0C5554",
"G	c #0F605E",
"H	c #095252",
"I	c #0B5250",
"J	c #0C5957",
"K	c #0E5454",
"L	c #0B5B59",
"M	c #09504E",
"                 ",
" .               ",
" +@              ",
" #$%             ",
" &*=-            ",
"    ;> ,')!~{]   ",
"     ^/(_    :<  ",
"  [   }|1    23  ",
"  4567890    ab  ",
"   cdefgh    ij  ",
"      klm    no  ",
"     pqrs    tu  ",
"     vwxy  z xA  ",
"     BCDlE FGxH  ",
"        IJK LM   ",
"                 ",
"                 "};
