/* XPM */
static char * reaction_xpm[] = {
"16 16 233 2",
"  	c None",
". 	c #818181",
"+ 	c #F8F8F8",
"@ 	c #B4B4B4",
"# 	c #BABABA",
"$ 	c #FEFEFE",
"% 	c #DBDBDB",
"& 	c #E3E3E3",
"* 	c #D4D4D4",
"= 	c #D1D1D1",
"- 	c #E8E8E8",
"; 	c #FFFFFF",
"> 	c #C9C9C9",
", 	c #9E9E9E",
"' 	c #FBFBFB",
") 	c #B0B0B0",
"! 	c #323232",
"~ 	c #363636",
"{ 	c #474747",
"] 	c #CCCCCC",
"^ 	c #CDCDCD",
"/ 	c #F9F9F9",
"( 	c #EDEDED",
"_ 	c #E8EEEE",
": 	c #D5D5D5",
"< 	c #555555",
"[ 	c #878787",
"} 	c #424242",
"| 	c #626262",
"1 	c #C8C8C8",
"2 	c #8A8A8A",
"3 	c #D2D2D2",
"4 	c #E7ECEC",
"5 	c #D2DCDC",
"6 	c #B6C5C5",
"7 	c #CFE8E8",
"8 	c #E7BABA",
"9 	c #FEF8F8",
"0 	c #DCDCDC",
"a 	c #DADADA",
"b 	c #959595",
"c 	c #7C7C7C",
"d 	c #F2F2F2",
"e 	c #ACB5B5",
"f 	c #A0ADAD",
"g 	c #F4D4D4",
"h 	c #DE9C9C",
"i 	c #F57B7B",
"j 	c #FC5454",
"k 	c #FD4B4B",
"l 	c #FE2020",
"m 	c #DA8E8E",
"n 	c #BDCACA",
"o 	c #979797",
"p 	c #F3F3F3",
"q 	c #BBBBBB",
"r 	c #1C1C1C",
"s 	c #2A3333",
"t 	c #8B4242",
"u 	c #B94C4C",
"v 	c #F53A3A",
"w 	c #F52E2E",
"x 	c #F41A1A",
"y 	c #911010",
"z 	c #8E0F0F",
"A 	c #E22020",
"B 	c #ED2424",
"C 	c #760E0E",
"D 	c #513333",
"E 	c #515555",
"F 	c #585858",
"G 	c #4C4C4C",
"H 	c #7A7A7A",
"I 	c #EFEFEF",
"J 	c #F43333",
"K 	c #F43B3B",
"L 	c #A92020",
"M 	c #1C0C0C",
"N 	c #282222",
"O 	c #484646",
"P 	c #596262",
"Q 	c #752929",
"R 	c #AF2121",
"S 	c #3A1111",
"T 	c #2D1717",
"U 	c #969999",
"V 	c #EAEAEA",
"W 	c #B2B2B2",
"X 	c #7F8A8A",
"Y 	c #893838",
"Z 	c #C72A2A",
"` 	c #2A1313",
" .	c #E6E5E5",
"..	c #C6D3D3",
"+.	c #B3C5C5",
"@.	c #ADB4B4",
"#.	c #F45757",
"$.	c #BD2C2C",
"%.	c #2E1C1C",
"&.	c #5C4242",
"*.	c #585B5B",
"=.	c #898989",
"-.	c #6D6D6D",
";.	c #1F1F1F",
">.	c #3E4444",
",.	c #532727",
"'.	c #C92B2B",
").	c #B52A2A",
"!.	c #A37676",
"~.	c #CF7979",
"{.	c #E26D6D",
"].	c #F75656",
"^.	c #F84848",
"/.	c #752020",
"(.	c #321616",
"_.	c #908E8E",
":.	c #343535",
"<.	c #494949",
"[.	c #4A4A4A",
"}.	c #858585",
"|.	c #A7A6A6",
"1.	c #B31B1B",
"2.	c #F03939",
"3.	c #941919",
"4.	c #C61F1F",
"5.	c #D61F1F",
"6.	c #B11E1E",
"7.	c #B82323",
"8.	c #691717",
"9.	c #666B6B",
"0.	c #7F8787",
"a.	c #606060",
"b.	c #A5A5A5",
"c.	c #272727",
"d.	c #515151",
"e.	c #384848",
"f.	c #B43636",
"g.	c #AB2A2A",
"h.	c #1C1111",
"i.	c #403838",
"j.	c #424646",
"k.	c #2E1D1D",
"l.	c #250C0C",
"m.	c #962424",
"n.	c #911515",
"o.	c #7E5858",
"p.	c #1B2626",
"q.	c #3B3B3B",
"r.	c #353535",
"s.	c #676767",
"t.	c #7D8787",
"u.	c #A85A5A",
"v.	c #AD2727",
"w.	c #280E0E",
"x.	c #848989",
"y.	c #787B7B",
"z.	c #787E7E",
"A.	c #4F3D3D",
"B.	c #391010",
"C.	c #822020",
"D.	c #7A1313",
"E.	c #592323",
"F.	c #8B9292",
"G.	c #6F6F6F",
"H.	c #7B7B7B",
"I.	c #E5E5E5",
"J.	c #999F9F",
"K.	c #5C2D2D",
"L.	c #C52121",
"M.	c #2C0B0B",
"N.	c #3D3434",
"O.	c #404141",
"P.	c #474B4B",
"Q.	c #352222",
"R.	c #250707",
"S.	c #230606",
"T.	c #270909",
"U.	c #796C6C",
"V.	c #7A7C7C",
"W.	c #3C3C3C",
"X.	c #575959",
"Y.	c #403D3D",
"Z.	c #8D1414",
"`.	c #230909",
" +	c #311D1D",
".+	c #303232",
"++	c #3A3A3A",
"@+	c #2F2F2F",
"#+	c #353939",
"$+	c #251C1C",
"%+	c #1F1B1B",
"&+	c #1A1F1F",
"*+	c #1D1E1E",
"=+	c #161616",
"-+	c #8E8E8E",
";+	c #F0F0F0",
">+	c #B6B6B6",
",+	c #A3A9A9",
"'+	c #271414",
")+	c #361111",
"!+	c #544040",
"~+	c #7B7D7D",
"{+	c #848484",
"]+	c #8B8B8B",
"^+	c #909292",
"/+	c #5E5E5E",
"(+	c #B8B8B8",
"_+	c #7F7F7F",
":+	c #575757",
"<+	c #ACACAC",
"[+	c #7E7E7E",
"}+	c #BEBEBE",
"|+	c #D8DCDC",
"1+	c #A5A9A9",
"2+	c #868888",
"3+	c #808080",
"4+	c #9F9F9F",
"5+	c #A3A3A3",
"6+	c #868686",
"7+	c #1A1A1A",
"8+	c #5C5C5C",
"9+	c #292929",
"0+	c #595959",
"a+	c #4F4F4F",
"b+	c #C0C0C0",
"c+	c #D8D8D8",
"d+	c #8C8C8C",
"e+	c #969696",
"f+	c #B7B7B7",
"g+	c #BCBCBC",
"h+	c #929292",
"i+	c #070707",
"j+	c #0B0B0B",
". + @ # $ % & * = - ; $ > , ' ) ",
"! ~ { ] $ ^ / ( ] _ ; ; : < [ } ",
"| 1 2 3 ; 4 5 6 7 8 9 $ 0 . a b ",
"c d e f / g h i j k l m n o p q ",
"r s t u v w x y z A B C D E F G ",
"H I J K L M N O P Q R S T U V W ",
"} X Y Z `  ...+.@.#.$.%.&.*.=.-.",
";.>.,.'.).!.~.{.].^./.(._.:.<.[.",
"}.p |.1.2.3.4.5.6.7.8.9.0.a.a b.",
"c.d.e.f.g.h.i.j.k.l.m.n.o.p.q.r.",
"s.> t.u.v.w.x.y.z.A.B.C.D.E.F.G.",
"H.I.J.K.L.M.N.O.{ P.Q.R.S.T.U.V.",
"W.F X.Y.Z.`. +.+++@+#+$+%+&+*+=+",
"-+;+>+,+'+)+!+~+H {+]+^+/+{ (+_+",
":+<+[+}+|+1+2+[+3+[ 4+5+6+7+8+q.",
"9+0+a+b+c+d+b.e+-+e+f+g+h+i+r j+"};
