/* XPM */
static char * red_minus_xpm[] = {
"9 9 2 1",
".	c None",
"+	c #C00000",
".........",
".........",
".........",
".........",
".+++++++.",
".........",
".........",
".........",
"........."};
