/* XPM */
static char * rexuiz_xpm[] = {
"16 16 147 2",
"  	c None",
". 	c #546A80",
"+ 	c #4E7494",
"@ 	c #49799E",
"# 	c #4A789B",
"$ 	c #4E7696",
"% 	c #546A81",
"& 	c #4187B6",
"* 	c #2697D4",
"= 	c #1E86BB",
"- 	c #1784B8",
"; 	c #1C86BB",
"> 	c #2389BF",
", 	c #2992CC",
"' 	c #52718E",
") 	c #3094CD",
"! 	c #1A93CF",
"~ 	c #31759F",
"{ 	c #2F6F95",
"] 	c #138FC9",
"^ 	c #1689BF",
"/ 	c #1A87BD",
"( 	c #257AA7",
"_ 	c #198BC2",
": 	c #318CC1",
"< 	c #208DC5",
"[ 	c #375F7B",
"} 	c #2778A4",
"| 	c #1788BF",
"1 	c #069ADA",
"2 	c #059BDC",
"3 	c #0898D6",
"4 	c #059BDB",
"5 	c #0997D4",
"6 	c #108CC5",
"7 	c #318FC5",
"8 	c #1696D3",
"9 	c #366280",
"0 	c #28729B",
"a 	c #158DC5",
"b 	c #039CDD",
"c 	c #049BDB",
"d 	c #0D93CF",
"e 	c #1987BB",
"f 	c #1987BC",
"g 	c #049DDD",
"h 	c #108EC7",
"i 	c #079ADA",
"j 	c #2598D5",
"k 	c #2F79A5",
"l 	c #32729A",
"m 	c #3B586F",
"n 	c #385870",
"o 	c #0E95D2",
"p 	c #1090CB",
"q 	c #178BC3",
"r 	c #2C759F",
"s 	c #217EAE",
"t 	c #1887BC",
"u 	c #2288BE",
"v 	c #2598D4",
"w 	c #4E789A",
"x 	c #119BDA",
"y 	c #376788",
"z 	c #2F77A2",
"A 	c #434345",
"B 	c #33617F",
"C 	c #0798D7",
"D 	c #1F81B3",
"E 	c #148FC9",
"F 	c #217DAC",
"G 	c #158CC4",
"H 	c #2083B5",
"I 	c #2C7CA9",
"J 	c #0F9CDD",
"K 	c #497CA2",
"L 	c #1298D7",
"M 	c #37688A",
"N 	c #346E94",
"O 	c #424345",
"P 	c #29749E",
"Q 	c #0898D7",
"R 	c #2374A0",
"S 	c #0D94D1",
"T 	c #1888BE",
"U 	c #237DAB",
"V 	c #2A7AA6",
"W 	c #1396D3",
"X 	c #01A0E3",
"Y 	c #356C90",
"Z 	c #30739B",
"` 	c #3C5468",
" .	c #1F87BD",
"..	c #1191CC",
"+.	c #1B82B4",
"@.	c #0B95D3",
"#.	c #128DC6",
"$.	c #1094D0",
"%.	c #0D99D9",
"&.	c #049EE0",
"*.	c #00A0E3",
"=.	c #109CDC",
"-.	c #337097",
";.	c #2A7EAD",
">.	c #2976A1",
",.	c #138CC4",
"'.	c #0E92CD",
").	c #0C95D2",
"!.	c #099FE1",
"~.	c #2599D6",
"{.	c #2981B3",
"].	c #2A79A6",
"^.	c #1E83B6",
"/.	c #1691CC",
"(.	c #0F91CD",
"_.	c #138CC5",
":.	c #019FE2",
"<.	c #2499D6",
"[.	c #1198D6",
"}.	c #28739D",
"|.	c #1885BA",
"1.	c #1F86BA",
"2.	c #2189BF",
"3.	c #059DDF",
"4.	c #029EE0",
"5.	c #128CC5",
"6.	c #0B96D4",
"7.	c #3482B1",
"8.	c #1C7DAD",
"9.	c #287DAD",
"0.	c #287FAF",
"a.	c #1397D5",
"b.	c #049CDD",
"c.	c #118CC5",
"d.	c #1585BA",
"e.	c #536B82",
"f.	c #3092CA",
"g.	c #1099D8",
"h.	c #2684B6",
"i.	c #2B7DAC",
"j.	c #0D9AD9",
"k.	c #069BDB",
"l.	c #3094CC",
"m.	c #2599D5",
"n.	c #129BDA",
"o.	c #079DDE",
"p.	c #0A9FE1",
"          . + @ # $ %           ",
"      . & * = - ; > , & %       ",
"    ' ) ! ~ { ] ^ / ( _ : '     ",
"  . ) < [ } | 1 2 3 4 5 6 7 %   ",
"  & 8 9 0 a b c d e f g h i &   ",
". j k l m n o p q r s b t u v % ",
"w x y z A B C D E F p G H I J w ",
"K L M N O P Q R ] S T U V W X K ",
"K L Y Z `  ...+.@.#.$.%.&.*.X K ",
"w =.-.;.>...,.2 ,.'.).*.*.*.!.w ",
". ~.{.].f ^./.*.(.d _.:.*.*.<.% ",
"  & [.}.|.1.2.3.4.#.5.6.*.X &   ",
"  . 7.8.9.0.a.4.*.b.c.d.4.) %   ",
"    e.f.g.h.i.j.*.*.:.k.l.'     ",
"      . & m.n.o.X p.~.& %       ",
"          . w K K w %           "};
