/* XPM */
static char * rune_xpm[] = {
"16 16 10 1",
" 	c None",
".	c #505050",
"+	c #090909",
"@	c #000000",
"#	c #1E1E1E",
"$	c #323232",
"%	c #3C3C3C",
"&	c #141414",
"*	c #454545",
"=	c #272727",
"                ",
"   .+@@@#$%%.   ",
"    @@&*%&@@%   ",
"    #@# #@@*    ",
"    #@+@@@&.    ",
"    #@#*#@@@@$  ",
"    %@#   $@@=  ",
"    %@#   %@@%  ",
"     @#   %@+   ",
"     +#   =@=   ",
"     =$   #@.   ",
"     %%   @#    ",
"     %%  *@*    ",
"     ..  =&     ",
"         &.     ",
"        %%      "};
