/* XPM */
static char * server_down_xpm[] = {
"17 17 3 1",
" 	c None",
".	c #7F0000",
"+	c #FF0000",
"                 ",
"                 ",
"                 ",
"   ..       ..   ",
"   .+.     .+.   ",
"    .+.   .+.    ",
"     .+. .+.     ",
"      .+.+.      ",
"       .+.       ",
"      .+.+.      ",
"     .+. .+.     ",
"    .+.   .+.    ",
"   .+.     .+.   ",
"   ..       ..   ",
"                 ",
"                 ",
"                 "};
