/* XPM */
static char * server_error_xpm[] = {
"17 17 4 1",
" 	c None",
".	c #7F0000",
"+	c #FF0000",
"@	c #FFFFFF",
"                 ",
"                 ",
"     .......     ",
"    .+++++++.    ",
"   .+++++++++.   ",
"  .+++++++++++.  ",
"  .+++++++++++.  ",
"  .+@@@@@@@@@+.  ",
"  .+@@@@@@@@@+.  ",
"  .+@@@@@@@@@+.  ",
"  .+++++++++++.  ",
"  .+++++++++++.  ",
"   .+++++++++.   ",
"    .+++++++.    ",
"     .......     ",
"                 ",
"                 "};
