/* XPM */
static char * server_up_xpm[] = {
"17 17 3 1",
" 	c None",
".	c #004900",
"+	c #00C900",
"                 ",
"                 ",
"                 ",
"                 ",
"                 ",
"                 ",
"              .. ",
"             .+. ",
"            .+.  ",
"    ..     .+.   ",
"    .+.   .+.    ",
"     .+. .+.     ",
"      .+.+.      ",
"       .+.       ",
"        .        ",
"                 ",
"                 "};
