/* XPM */
static char * smokinguns_xpm[] = {
"16 16 93 2",
"  	c None",
". 	c #091115",
"+ 	c #222B31",
"@ 	c #182122",
"# 	c #353F47",
"$ 	c #232D2D",
"% 	c #414D53",
"& 	c #BAB8B6",
"* 	c #404042",
"= 	c #3C4344",
"- 	c #71787A",
"; 	c #7A7978",
"> 	c #A8A7A7",
", 	c #B8B7B6",
"' 	c #8E8C8C",
") 	c #62696B",
"! 	c #515A61",
"~ 	c #BDBAB8",
"{ 	c #C2C0C0",
"] 	c #92918F",
"^ 	c #44454B",
"/ 	c #9AA0A5",
"( 	c #415158",
"_ 	c #837F7B",
": 	c #D9D9D9",
"< 	c #979491",
"[ 	c #938E86",
"} 	c #9B9999",
"| 	c #525259",
"1 	c #232B29",
"2 	c #5B6669",
"3 	c #666E72",
"4 	c #A4A3A5",
"5 	c #807D7C",
"6 	c #6A665C",
"7 	c #8B8880",
"8 	c #D2D2D2",
"9 	c #5F5E62",
"0 	c #141415",
"a 	c #4D4F51",
"b 	c #131E1F",
"c 	c #333C3E",
"d 	c #6B696A",
"e 	c #58585D",
"f 	c #B7B7B9",
"g 	c #D6D6D7",
"h 	c #363435",
"i 	c #232525",
"j 	c #3F4445",
"k 	c #38383B",
"l 	c #3E4043",
"m 	c #585A5F",
"n 	c #665755",
"o 	c #554647",
"p 	c #646161",
"q 	c #1C1E1D",
"r 	c #9DA1A7",
"s 	c #353642",
"t 	c #56565D",
"u 	c #572D1E",
"v 	c #351E16",
"w 	c #2F3332",
"x 	c #191C1B",
"y 	c #75757D",
"z 	c #484A4F",
"A 	c #1F0600",
"B 	c #592E1C",
"C 	c #411B0A",
"D 	c #9C6C53",
"E 	c #724F3B",
"F 	c #39150B",
"G 	c #4D281C",
"H 	c #350B00",
"I 	c #834C29",
"J 	c #BC825A",
"K 	c #522C0C",
"L 	c #180300",
"M 	c #41231A",
"N 	c #3D190D",
"O 	c #150200",
"P 	c #110701",
"Q 	c #60361C",
"R 	c #AC806A",
"S 	c #664024",
"T 	c #210D01",
"U 	c #090000",
"V 	c #280D03",
"W 	c #110300",
"X 	c #060604",
"Y 	c #2E1F14",
"Z 	c #361503",
"` 	c #150701",
" .	c #090300",
"          . +                   ",
"            @ #                 ",
"              $ %   &           ",
"              * = - ;           ",
"            > , ' ) !           ",
"        ~ { ]     ^ / (         ",
"    _ : < [ }     | 1 2 3       ",
"  4 5 6 7 8 9     0 a b c d     ",
"    e f g h         i j k l m   ",
"    n o p             q r s t   ",
"    u v               w x y z   ",
"  A B C                   D E   ",
"    F G H               I J K   ",
"    L M N O         P Q R S T   ",
"    U V W             X Y Z     ",
"                        `  .    "};
