/* XPM */
static char * sn_xpm[] = {
"17 17 2 1",
" 	c None",
".	c #800000",
"                 ",
"                 ",
"                 ",
"          .....  ",
"       .......   ",
"      ....       ",
"       ........  ",
"            .... ",
"          .....  ",
"        .....    ",
"      .....      ",
"    ....         ",
"  ...            ",
"                 ",
"                 ",
"                 ",
"                 "};
