/* XPM */
static char * sof2s_xpm[] = {
"17 17 2 1",
" 	c None",
".	c #000000",
"  ....           ",
" .               ",
" .               ",
"  ...            ",
"     .           ",
"     .           ",
" ....  ...       ",
"      .   .      ",
"      .   .      ",
"      .   .      ",
"       ... ..... ",
"  ...      .     ",
" .   .     .     ",
"     .     ...   ",
"  ...      .     ",
" .         .     ",
" .....     .     "};
