/* XPM */
static char * stop_xpm[] = {
"24 24 2 1",
" 	c None",
".	c #FF0000",
"                        ",
"    .              .    ",
"   ...            ...   ",
"  .....          .....  ",
" .......        ....... ",
"  .......      .......  ",
"   .......    .......   ",
"    .......  .......    ",
"     ..............     ",
"      ............      ",
"       ..........       ",
"        ........        ",
"        ........        ",
"       ..........       ",
"      ............      ",
"     ..............     ",
"    .......  .......    ",
"   .......    .......   ",
"  .......      .......  ",
" .......        ....... ",
"  .....          .....  ",
"   ...            ...   ",
"    .              .    ",
"                        "};
