/* XPM */
static char * ef_xpm[] = {
"16 16 17 1",
" 	c None",
".	c #37100E",
"+	c #50442E",
"@	c #9A8C62",
"#	c #6A5B34",
"$	c #A40202",
"%	c #6E6D6A",
"&	c #9E7F41",
"*	c #ADADAD",
"=	c #69210E",
"-	c #8F6016",
";	c #924808",
">	c #A92B03",
",	c #96701F",
"'	c #87837B",
")	c #724A1A",
"!	c #999691",
"                ",
"       ++       ",
"      )+)       ",
"      -@')      ",
"     %&**-      ",
" '*&#,***@)+>+; ",
"'>.$=-***!-.$.>%",
"'>%!&@**!!&'!#=&",
"-.==-***!!@;.=.)",
"%>)>-!*!'''-$==%",
" #%%,!!&,,&,+++ ",
"    ,!-   -,    ",
"   #,-     -+   ",
"   &-       +   ",
"   ,            ",
"                "};
