/* XPM */
static char * teeworlds_xpm[] = {
"16 16 149 2",
"  	c None",
". 	c #000000",
"+ 	c #070602",
"@ 	c #040401",
"# 	c #BB9B58",
"$ 	c #FFF794",
"% 	c #FFF79C",
"& 	c #FFFAA2",
"* 	c #FFFBA6",
"= 	c #B19865",
"- 	c #2B1700",
"; 	c #FFF98B",
"> 	c #FFE288",
", 	c #FFD98A",
"' 	c #FFDB92",
") 	c #FFDD98",
"! 	c #FFDF9D",
"~ 	c #FFEDA6",
"{ 	c #FFFFB1",
"] 	c #1A160F",
"^ 	c #FFD626",
"/ 	c #FFD986",
"( 	c #FFD785",
"_ 	c #FFE999",
": 	c #FFF4AA",
"< 	c #FFE0A1",
"[ 	c #FFFFBF",
"} 	c #FFECAF",
"| 	c #FFE4A5",
"1 	c #FFFFB2",
"2 	c #CE8600",
"3 	c #FFC943",
"4 	c #FFE792",
"5 	c #8A764F",
"6 	c #252118",
"7 	c #FFFFD2",
"8 	c #C5B28B",
"9 	c #FFEDB2",
"0 	c #FFEEAA",
"a 	c #B89F6A",
"b 	c #FFC400",
"c 	c #FFC148",
"d 	c #FFD684",
"e 	c #FFF098",
"f 	c #312A1C",
"g 	c #FFFFCF",
"h 	c #6A624D",
"i 	c #FFF6BB",
"j 	c #FFE1A1",
"k 	c #FFFFAC",
"l 	c #FFBB00",
"m 	c #FFBC36",
"n 	c #FFD786",
"o 	c #FFE690",
"p 	c #87734C",
"q 	c #242018",
"r 	c #FFFFCD",
"s 	c #C3AF85",
"t 	c #FFEBAF",
"u 	c #FFDE9E",
"v 	c #FFF9A5",
"w 	c #15130A",
"x 	c #FFBD00",
"y 	c #FFAA07",
"z 	c #FFDA8B",
"A 	c #FFD682",
"B 	c #FFE896",
"C 	c #FFF4A6",
"D 	c #FFFEB8",
"E 	c #FFEAAB",
"F 	c #FFDB96",
"G 	c #FFF89F",
"H 	c #1A160D",
"I 	c #FFC700",
"J 	c #FFA300",
"K 	c #FFCC64",
"L 	c #FFD98D",
"M 	c #FFDB93",
"N 	c #FFDD97",
"O 	c #FFDC94",
"P 	c #FFDA8E",
"Q 	c #FFFD9E",
"R 	c #EA9B00",
"S 	c #FFAE00",
"T 	c #FFA600",
"U 	c #FFD685",
"V 	c #FFD581",
"W 	c #FFD889",
"X 	c #FFD98B",
"Y 	c #FFD98C",
"Z 	c #FFD789",
"` 	c #FFE18B",
" .	c #D2B067",
"..	c #1E1300",
"+.	c #FFCB00",
"@.	c #FFB500",
"#.	c #FFE075",
"$.	c #FFE188",
"%.	c #FFD783",
"&.	c #FFD582",
"*.	c #FFD883",
"=.	c #FFFF94",
"-.	c #0D0904",
";.	c #4D3001",
">.	c #573A09",
",.	c #563806",
"'.	c #522D00",
").	c #896822",
"!.	c #FFDF5E",
"~.	c #FFD378",
"{.	c #FFD879",
"].	c #FFE862",
"^.	c #2D2716",
"/.	c #AD6F05",
"(.	c #FFAE22",
"_.	c #FFB635",
":.	c #FFC040",
"<.	c #FFC341",
"[.	c #C0811A",
"}.	c #543100",
"|.	c #FFC500",
"1.	c #CD8100",
"2.	c #311D00",
"3.	c #EFA92D",
"4.	c #4B3205",
"5.	c #FFAF0B",
"6.	c #ECA01B",
"7.	c #F2A725",
"8.	c #F7AD2C",
"9.	c #FBB132",
"0.	c #FFBB2A",
"a.	c #684302",
"b.	c #5D3D06",
"c.	c #956717",
"d.	c #FFB72B",
"e.	c #FBB12F",
"f.	c #FFAB17",
"g.	c #482F00",
"h.	c #8E5A02",
"i.	c #925E05",
"j.	c #996305",
"k.	c #956206",
"l.	c #764A02",
"m.	c #1A0F00",
"n.	c #A96D05",
"o.	c #9F6806",
"p.	c #986206",
"q.	c #8C5B05",
"r.	c #271700",
"          . . + @ . .           ",
"        . # $ % & * = .         ",
"      - ; > , ' ) ! ~ { ]       ",
"    . ^ / ( _ : < [ } | 1 .     ",
"  . 2 3 ( 4 5 6 7 . 8 9 0 a .   ",
"  . b c d e f . g . h i j k .   ",
"  . l m n o p q r . s t u v w   ",
"  . x y z A B C u D E ! F G H   ",
"  . I J K d ( L M F N O P Q .   ",
"  . R S T U V d W X Y Z `  ..   ",
"    ..+.@.@.#.$.%.&.&.*.=.-.    ",
"    . ;.>.,.'.).!.~.{.].^..     ",
"  . /.(._.:.<.[.}.|.1.2.3.4.    ",
"  . 5.6.7.8.9.0.a.b.c.d.e.f..   ",
"  . g.h.i.j.k.l.m.n.o.p.q.r..   ",
"      . . . . . . . . . .       "};
