/* XPM */
static char * tremulousgpp_xpm[] = {
"16 16 6 1",
" 	c None",
".	c #964700",
"+	c #80420A",
"@	c #6F3D11",
"#	c #823E02",
"$	c #7B3C05",
"        .       ",
"       ...      ",
" .     +..    . ",
" ..    @++   .. ",
"  @.   @@@  +.  ",
"   @. @@@@@@+   ",
"    @@@@@@@     ",
"     @@@@#@     ",
"     @@@@#@$+   ",
"  ..@@@@@$@     ",
"      @@@$@+    ",
"     @@+$$@++   ",
"     @ @@@  .   ",
"     .       .  ",
"    .           ",
"                "};
