/* XPM */
static char * tremfusion_xpm[] = {
"16 16 131 2",
"  	c None",
". 	c #093433",
"+ 	c #0E3335",
"@ 	c #092425",
"# 	c #020404",
"$ 	c #00211C",
"% 	c #245C67",
"& 	c #123E41",
"* 	c #0C3B3B",
"= 	c #143F43",
"- 	c #081214",
"; 	c #030505",
"> 	c #020202",
", 	c #06302E",
"' 	c #155457",
") 	c #0C4645",
"! 	c #114445",
"~ 	c #184045",
"{ 	c #14383B",
"] 	c #01120F",
"^ 	c #050D0C",
"/ 	c #104142",
"( 	c #1A595E",
"_ 	c #21676F",
": 	c #266E77",
"< 	c #216A72",
"[ 	c #256E76",
"} 	c #21646B",
"| 	c #11393C",
"1 	c #081213",
"2 	c #071A1A",
"3 	c #1D4E55",
"4 	c #1B5A60",
"5 	c #27717B",
"6 	c #2B7681",
"7 	c #2D7C87",
"8 	c #27767E",
"9 	c #2F818E",
"0 	c #338593",
"a 	c #286C77",
"b 	c #091A1B",
"c 	c #144448",
"d 	c #1C595F",
"e 	c #34808F",
"f 	c #3F91A3",
"g 	c #3C8A9D",
"h 	c #35818F",
"i 	c #357C8B",
"j 	c #398B9C",
"k 	c #22626B",
"l 	c #072020",
"m 	c #031F1E",
"n 	c #1A5658",
"o 	c #327586",
"p 	c #499BB5",
"q 	c #3A7286",
"r 	c #4892A8",
"s 	c #3F97AA",
"t 	c #3B8294",
"u 	c #2B6F7B",
"v 	c #0D3B3D",
"w 	c #377B8B",
"x 	c #275B64",
"y 	c #388999",
"z 	c #3D8798",
"A 	c #22525D",
"B 	c #357A89",
"C 	c #338693",
"D 	c #358695",
"E 	c #28717C",
"F 	c #215761",
"G 	c #285C66",
"H 	c #29606D",
"I 	c #3C8799",
"J 	c #307683",
"K 	c #194F55",
"L 	c #358492",
"M 	c #348896",
"N 	c #2D7883",
"O 	c #1B474E",
"P 	c #2C6B77",
"Q 	c #29626D",
"R 	c #2A5963",
"S 	c #2A616C",
"T 	c #1C585E",
"U 	c #1C535A",
"V 	c #215964",
"W 	c #2B606E",
"X 	c #265764",
"Y 	c #2F6774",
"Z 	c #306574",
"` 	c #1F4B52",
" .	c #296772",
"..	c #215B63",
"+.	c #175458",
"@.	c #29636F",
"#.	c #307483",
"$.	c #376478",
"%.	c #2F6C7B",
"&.	c #346C7F",
"*.	c #29717C",
"=.	c #1E5C63",
"-.	c #1B565D",
";.	c #3B8599",
">.	c #2D6776",
",.	c #2E6673",
"'.	c #255F68",
").	c #34808D",
"!.	c #286A74",
"~.	c #1B5459",
"{.	c #195157",
"].	c #15494D",
"^.	c #216067",
"/.	c #26727B",
"(.	c #1B575C",
"_.	c #21626A",
":.	c #317F8C",
"<.	c #2B6C79",
"[.	c #18484E",
"}.	c #296571",
"|.	c #2F7482",
"1.	c #3B879A",
"2.	c #256872",
"3.	c #1F4E54",
"4.	c #295F6A",
"5.	c #13474B",
"6.	c #3B7B8F",
"7.	c #396C83",
"8.	c #356276",
"9.	c #286973",
"0.	c #1A555C",
"            . + @ #             ",
"        $ % & * = - ; >         ",
"      ,     ' ) ! ~ { ]   ^     ",
"    /     ( _ : < [ } |   1 2   ",
"  3     4 5 6 7 8 9 0 a     b   ",
"  c   d e f g h i j e k     l m ",
"  n   o p q r s t   u         v ",
"        w   x y z A B           ",
"        C D E F G H I J       K ",
"        L M N O P Q R S       T ",
"  U     V W X Y Z `    .    ..+.",
"  @.#.    $.%.      &.*.    =.  ",
"    -.    ;.>.,.  '.).!.  ~.    ",
"    {.].  ^./.(._.:.<.    [.    ",
"            }.|.1.2.3.4.        ",
"          5.6.7.8.9.0.          "};
