/* XPM */
static char * turtlearena_xpm[] = {
"16 16 48 1",
" 	c None",
".	c #000000",
"+	c #006000",
"@	c #109614",
"#	c #12A016",
"$	c #12A216",
"%	c #000800",
"&	c #047608",
"*	c #067E0A",
"=	c #0A8A0E",
"-	c #0E9412",
";	c #109E14",
">	c #005A00",
",	c #006200",
"'	c #006E06",
")	c #047A08",
"!	c #08860C",
"~	c #0C9010",
"{	c #14A218",
"]	c #004800",
"^	c #005400",
"/	c #005E00",
"(	c #006804",
"_	c #08800C",
":	c #0A880E",
"<	c #003800",
"[	c #004200",
"}	c #004E00",
"|	c #006602",
"1	c #027006",
"2	c #047808",
"3	c #003400",
"4	c #003E00",
"5	c #004A00",
"6	c #002A00",
"7	c #003600",
"8	c #004000",
"9	c #005800",
"0	c #047A06",
"a	c #047C08",
"b	c #0A8E0E",
"c	c #109C14",
"d	c #005600",
"e	c #006A02",
"f	c #004400",
"g	c #006402",
"h	c #027406",
"i	c #005C00",
"                ",
"                ",
"   .....        ",
"  .+@#$$%       ",
"  .&*=-;%       ",
" .>,')!~{%      ",
" .]^/(&_:%      ",
" .<[}>|12%      ",
"  .345^+% ....  ",
"  .678]9%.0abc% ",
"   ..... .de)=% ",
"         .fdgh% ",
"         .<8}i% ",
"          %%%%  ",
"                ",
"                "};
