/* XPM */
static char * unvanquished_xpm[] = {
"16 16 190 2",
"  	c None",
". 	c #757570",
"+ 	c #6F7468",
"@ 	c #818984",
"# 	c #8A8F8A",
"$ 	c #92908D",
"% 	c #828889",
"& 	c #697D7F",
"* 	c #506769",
"= 	c #4C6163",
"- 	c #4D5E5C",
"; 	c #223535",
"> 	c #4C534D",
", 	c #7A8179",
"' 	c #CFDBBD",
") 	c #ABCEAD",
"! 	c #95D8D1",
"~ 	c #A2D3CB",
"{ 	c #78C1C4",
"] 	c #78BEC7",
"^ 	c #448992",
"/ 	c #3C4646",
"( 	c #65A1A9",
"_ 	c #73CBD8",
": 	c #5ED2D9",
"< 	c #1E5B63",
"[ 	c #43716F",
"} 	c #5C6B5E",
"| 	c #CDE4CE",
"1 	c #B0F1E1",
"2 	c #AFDFDC",
"3 	c #64C0C6",
"4 	c #57BECB",
"5 	c #38B0C1",
"6 	c #147480",
"7 	c #1D3234",
"8 	c #31838D",
"9 	c #519DAA",
"0 	c #4D969E",
"a 	c #0F2C30",
"b 	c #1E585E",
"c 	c #32595C",
"d 	c #CBE1D0",
"e 	c #ADE8DA",
"f 	c #9AE2E2",
"g 	c #94DBE0",
"h 	c #56C0C8",
"i 	c #3AAAB9",
"j 	c #3F8994",
"k 	c #112E32",
"l 	c #339CAD",
"m 	c #5ECEDF",
"n 	c #93F2FC",
"o 	c #1E4649",
"p 	c #001D1F",
"q 	c #0F3B42",
"r 	c #D4E0DC",
"s 	c #76D3D3",
"t 	c #6BD0D2",
"u 	c #90D5D6",
"v 	c #60B4BA",
"w 	c #54ADBB",
"x 	c #3B8B97",
"y 	c #0F1E20",
"z 	c #227683",
"A 	c #20A2B9",
"B 	c #41BDD7",
"C 	c #3EA8B9",
"D 	c #167385",
"E 	c #002122",
"F 	c #163A3D",
"G 	c #002529",
"H 	c #58B9CB",
"I 	c #42AEBF",
"J 	c #5DA8B4",
"K 	c #5EA9B8",
"L 	c #3C8AA0",
"M 	c #0F1A1D",
"N 	c #094352",
"O 	c #177FA1",
"P 	c #1B93B9",
"Q 	c #1D94B7",
"R 	c #097A99",
"S 	c #388DA2",
"T 	c #000B0D",
"U 	c #042022",
"V 	c #3C717D",
"W 	c #5BC2DD",
"X 	c #6DB7C6",
"Y 	c #54ADBF",
"Z 	c #418796",
"` 	c #000F0F",
" .	c #0A545C",
"..	c #0D8390",
"+.	c #1098A5",
"@.	c #0F9BA6",
"#.	c #0E7C90",
"$.	c #509BA9",
"%.	c #354649",
"&.	c #020B0C",
"*.	c #012022",
"=.	c #335B60",
"-.	c #8CC8D1",
";.	c #86DBE3",
">.	c #45A1AA",
",.	c #265A62",
"'.	c #18939B",
").	c #1DA7B5",
"!.	c #11A0B2",
"~.	c #0982A2",
"{.	c #1E7D9B",
"].	c #5F868D",
"^.	c #000203",
"/.	c #000809",
"(.	c #001517",
"_.	c #07272A",
":.	c #103438",
"<.	c #3B6669",
"[.	c #00252A",
"}.	c #04272C",
"|.	c #1C8797",
"1.	c #1A9DB6",
"2.	c #0BA2C2",
"3.	c #1885AF",
"4.	c #2C83A4",
"5.	c #679DA5",
"6.	c #000406",
"7.	c #001112",
"8.	c #001214",
"9.	c #001113",
"0.	c #041C20",
"a.	c #103A42",
"b.	c #2AA2BA",
"c.	c #18839D",
"d.	c #0F7B95",
"e.	c #0A86AC",
"f.	c #3DA8D1",
"g.	c #4AA7C5",
"h.	c #689598",
"i.	c #000506",
"j.	c #000708",
"k.	c #000F11",
"l.	c #1E3C40",
"m.	c #143136",
"n.	c #1C92A9",
"o.	c #0E728D",
"p.	c #147798",
"q.	c #1C84A3",
"r.	c #43A1B8",
"s.	c #40AABC",
"t.	c #789790",
"u.	c #000000",
"v.	c #000102",
"w.	c #000405",
"x.	c #0A2226",
"y.	c #2A545B",
"z.	c #287882",
"A.	c #0A7D94",
"B.	c #0B7294",
"C.	c #329DC3",
"D.	c #3F96AF",
"E.	c #5B9B9E",
"F.	c #99B5AD",
"G.	c #F8FFF5",
"H.	c #8A9489",
"I.	c #000204",
"J.	c #000F10",
"K.	c #13292C",
"L.	c #15434A",
"M.	c #155C6B",
"N.	c #0F7087",
"O.	c #2E6E81",
"P.	c #4B6E75",
"Q.	c #547577",
"R.	c #839C95",
"S.	c #AEB9AB",
"T.	c #5A5B56",
"U.	c #4C524D",
"V.	c #010102",
"W.	c #060808",
"X.	c #0A0E0F",
"Y.	c #0D1212",
"Z.	c #18353B",
"`.	c #13272B",
" +	c #171E1F",
".+	c #213133",
"++	c #1C2220",
"@+	c #1C2A28",
"#+	c #30322F",
"$+	c #343933",
"                                ",
"  . + @ # $ % &   * = - ; > ,   ",
"  ' ) ! ~ { ] ^ / ( _ : < [ }   ",
"  | 1 2 3 4 5 6 7 8 9 0 a b c   ",
"  d e f g h i j k l m n o p q   ",
"  r s t u v w x y z A B C D E   ",
"  F G H I J K L M N O P Q R S   ",
"  T U V W X Y Z `  ...+.@.#.$.  ",
"  %.&.*.=.-.;.>.,.'.).!.~.{.].  ",
"  ^./.(._.:.<.[.}.|.1.2.3.4.5.  ",
"  6.6.7.8.9.0.a.b.c.d.e.f.g.h.  ",
"  ^.i.j.8.k.l.m.n.o.p.q.r.s.t.  ",
"  u.v.w./.8.x.y.z.A.B.C.D.E.F.  ",
"  G.H.u.I.J.K.L.M.N.O.P.Q.R.S.  ",
"  T.U.V.W.X.Y.Z.`. +.+++@+#+$+  ",
"                                "};
