/* XPM */
static char * ut2004_xpm[] = {
"16 16 17 1",
" 	c None",
".	c #2B2941",
"+	c #D4AD72",
"@	c #878398",
"#	c #7E6F6D",
"$	c #5150D6",
"%	c #EDDABD",
"&	c #695D7C",
"*	c #6F6CF3",
"=	c #8785DC",
"-	c #3D3D9F",
";	c #E1CFB4",
">	c #5C5264",
",	c #B9ABAA",
"'	c #AC8E6B",
")	c #4D4B5B",
"!	c #32316D",
"         ==,    ",
"      @==**$$=  ",
"    ;,****$=,&$ ",
"   ;%;*$**=;#-$#",
"  ;%%%'$-,%;---&",
" %+';;,-!,;;!!!-",
" ,>$;%'-!,;+!!!!",
",&$$,+'!!,'+!..)",
"@$--,'#!.'++...#",
"----'+#!!'++..! ",
"--!-'''!!,++.)# ",
")!!-+++@,+++,'  ",
"#!!&'++++#''#   ",
" >..)>#'&.>#    ",
"  &)....)&      ",
"    @##'        "};
