/* XPM */
static char * warfork_xpm[] = {
"16 16 87 1",
" 	c #000C18",
".	c #000F1A",
"+	c #00111C",
"@	c #302A32",
"#	c #302A33",
"$	c #312B33",
"%	c #F2908D",
"&	c #F3908D",
"*	c #533D43",
"=	c #322B34",
"-	c #121B25",
";	c #1A1F28",
">	c #27262E",
",	c #533C42",
"'	c #101E2B",
")	c #324E66",
"!	c #3A566F",
"~	c #F6928F",
"{	c #04121D",
"]	c #2D465C",
"^	c #91BEED",
"/	c #89B5E1",
"(	c #614449",
"_	c #F99491",
":	c #EB8C8A",
"<	c #764A4C",
"[	c #214159",
"}	c #23394E",
"|	c #1F222B",
"1	c #F3908E",
"2	c #604349",
"3	c #3E3139",
"4	c #FA9491",
"5	c #2D242B",
"6	c #25435A",
"7	c #344F67",
"8	c #000E19",
"9	c #BC7474",
"0	c #B36F70",
"a	c #AA6A6C",
"b	c #955F62",
"c	c #9C6365",
"d	c #D48080",
"e	c #2B465C",
"f	c #071926",
"g	c #000915",
"h	c #6C4A4F",
"i	c #F89390",
"j	c #F79390",
"k	c #47363D",
"l	c #2A2730",
"m	c #F18F8D",
"n	c #F99390",
"o	c #8A5A5D",
"p	c #2E485F",
"q	c #354F68",
"r	c #1D2F40",
"s	c #1A3041",
"t	c #01131E",
"u	c #000D18",
"v	c #28262F",
"w	c #FC9592",
"x	c #DC8484",
"y	c #0B1620",
"z	c #C27677",
"A	c #FF9C99",
"B	c #44343C",
"C	c #314B63",
"D	c #1C3144",
"E	c #00101B",
"F	c #02121D",
"G	c #7B5155",
"H	c #5B4146",
"I	c #000D19",
"J	c #46363D",
"K	c #88585C",
"L	c #0C1722",
"M	c #000B15",
"N	c #1A2F41",
"O	c #0E2130",
"P	c #000D17",
"Q	c #00111B",
"R	c #21394C",
"S	c #37536B",
"T	c #355068",
"U	c #000B14",
"V	c #000811",
"         .++++++",
"@@@@@@@#$...+.++",
"%%%%%%%&%%..++++",
"................",
"*=..-;..>,')!!!!",
"~~{.~~..~~]^^^^/",
"(_..~~..:<[^}...",
"|12.1~.3456^7...",
"890~ab~cd.e^^^^f",
"ghijklmno.p^qrst",
"uvwxy8zAB.C^D..+",
"EFGHI JKLMN^O.PP",
"+.......EQ......",
"++++++.++.s^^^^^",
"++++++++++.RSTTT",
"+++++++++++UVVVV"};
