/* XPM */
static char * warsow_xpm[] = {
"16 16 17 1",
" 	c None",
".	c #533592",
"+	c #352257",
"@	c #47223A",
"#	c #050506",
"$	c #5D5A5D",
"%	c #837C7C",
"&	c #B1B3B0",
"*	c #F4F6F3",
"=	c #343334",
"-	c #BCBEBA",
";	c #783761",
">	c #762E2D",
",	c #563933",
"'	c #9A9B98",
")	c #882B06",
"!	c #EC4800",
"  .+++++++++++@#",
" ..+$$$$$$$$$$%$",
" ..#&***********",
" ..=*-==========",
" .+$*$.#%=+;;@>@",
" .#--++$**;;;;>,",
" .=**''*&**$@>>>",
" +$****&#'****$>",
" .####-*-*'%**,)",
" .....=-*%>#&*)>",
" ....;;@%>>,*%!)",
" ;$$$$$,$$$-*,!)",
"************-)!)",
"$$$$$$$$$$$%,)!)",
"#@@@@>>>)))))!!#",
"############### "};
