/* XPM */
static char * wo_xpm[] = {
"17 17 2 1",
" 	c None",
".	c #c00000",
"                 ",
"      .   .      ",
"      .. ..      ",
"      .. ..      ",
"..... .   . .....",
"   .  .   .  .   ",
" ......   ...... ",
"                 ",
"  ....  .  ....  ",
"     .  .  .     ",
"     .  .  .     ",
"     .  .  .     ",
"     . .. ..     ",
"     .. .. .     ",
"     .  .  .     ",
"        .        ",
"                 "};
