/* XPM */
static char * wop_xpm[] = {
"16 16 134 2",
"  	c None",
". 	c #EA6C1A",
"+ 	c #F0771C",
"@ 	c #F0781D",
"# 	c #F27210",
"$ 	c #F7B12F",
"% 	c #FBD821",
"& 	c #FFE80C",
"* 	c #FFE608",
"= 	c #FFE105",
"- 	c #FCDC0A",
"; 	c #FAAA05",
"> 	c #F07508",
", 	c #F6A024",
"' 	c #FFEF35",
") 	c #C4AA10",
"! 	c #FFD907",
"~ 	c #FCCB01",
"{ 	c #FFCB00",
"] 	c #FECB01",
"^ 	c #FFD200",
"/ 	c #FED500",
"( 	c #F69505",
"_ 	c #F08F22",
": 	c #BAAC33",
"< 	c #917B12",
"[ 	c #FFCE02",
"} 	c #191A19",
"| 	c #A08308",
"1 	c #FFCC00",
"2 	c #FFCF00",
"3 	c #FECA00",
"4 	c #806E24",
"5 	c #796516",
"6 	c #B48E15",
"7 	c #FFAB06",
"8 	c #ED6F1A",
"9 	c #FFF936",
"0 	c #00041A",
"a 	c #FFDD03",
"b 	c #554C24",
"c 	c #DDB713",
"d 	c #00000A",
"e 	c #FFD609",
"f 	c #5A4E1F",
"g 	c #BA9916",
"h 	c #93771C",
"i 	c #050402",
"j 	c #000000",
"k 	c #7C610A",
"l 	c #DA7E11",
"m 	c #ED9D33",
"n 	c #BDAB25",
"o 	c #BD9C1B",
"p 	c #0F1012",
"q 	c #483C12",
"r 	c #000009",
"s 	c #594A22",
"t 	c #000002",
"u 	c #A08020",
"v 	c #624900",
"w 	c #202022",
"x 	c #3E2F07",
"y 	c #FFA40B",
"z 	c #F3B83F",
"A 	c #877617",
"B 	c #020100",
"C 	c #000001",
"D 	c #010100",
"E 	c #594A1E",
"F 	c #604703",
"G 	c #1F201D",
"H 	c #735C1D",
"I 	c #080604",
"J 	c #0A0908",
"K 	c #614A08",
"L 	c #FFAF06",
"M 	c #EB923B",
"N 	c #A09521",
"O 	c #4E4315",
"P 	c #08080A",
"Q 	c #1E1A11",
"R 	c #000003",
"S 	c #000004",
"T 	c #7B651D",
"U 	c #5D4600",
"V 	c #282726",
"W 	c #7C631D",
"X 	c #100C03",
"Y 	c #785C0A",
"Z 	c #FFBD03",
"` 	c #ED920C",
" .	c #FFDD24",
"..	c #6D5F21",
"+.	c #FFDC01",
"@.	c #5F5324",
"#.	c #7D6106",
"$.	c #BC951A",
"%.	c #9C7D1F",
"&.	c #0A0702",
"*.	c #FFBD02",
"=.	c #AB5316",
"-.	c #E66D1B",
";.	c #FFEF15",
">.	c #6D550F",
",.	c #FFD400",
"'.	c #FBCB06",
").	c #FFCA02",
"!.	c #FFC702",
"~.	c #6A5718",
"{.	c #503D0A",
"].	c #A1801C",
"^.	c #1F1708",
"/.	c #FFC501",
"(.	c #DA7413",
"_.	c #D05814",
":.	c #FFBF0A",
"<.	c #FEBC00",
"[.	c #FFC101",
"}.	c #FFBF00",
"|.	c #FFC100",
"1.	c #FFC000",
"2.	c #FFBE01",
"3.	c #C76214",
"4.	c #CD6013",
"5.	c #EB910C",
"6.	c #FFA307",
"7.	c #FFA905",
"8.	c #FFA606",
"9.	c #EA8A0E",
"0.	c #FFA405",
"a.	c #FFC002",
"b.	c #DE7A0B",
"c.	c #D67711",
"                                ",
"            . + @               ",
"      # $ % & * = - ; >         ",
"    , ' ) ! ~ { { ] ^ / (       ",
"  _ : < [ } | 1 2 3 4 5 6 7     ",
"8 9 0 a b c d e f g h i j k l   ",
"m n j o p q r s j t u v w x y   ",
"z A B C D D j E F G H I J K L   ",
"M N O P Q R S T U V W X Y Z `   ",
"   ...t +.@.#.$.C R %.&.1 *.=.  ",
"  -.;.>.,.'.).!.~.{.].^./.(.    ",
"    _.:.3 <.[.}.|.1.|.2.3.      ",
"        4.5.6.7.8.9.0.a.        ",
"                      b.c.      ",
"                                ",
"                                "};
