/* XPM */
static char * xonotic_xpm[] = {
"16 16 173 2",
"  	c #000000",
". 	c #000204",
"+ 	c #082F5D",
"@ 	c #041938",
"# 	c #000100",
"$ 	c #041838",
"% 	c #010101",
"& 	c #03122A",
"* 	c #1060B8",
"= 	c #3673B6",
"- 	c #0F529B",
"; 	c #0F529D",
"> 	c #03122E",
", 	c #1A68BC",
"' 	c #598FCA",
") 	c #0950A5",
"! 	c #000813",
"~ 	c #000102",
"{ 	c #020000",
"] 	c #000003",
"^ 	c #000414",
"/ 	c #004CA6",
"( 	c #5A91CB",
"_ 	c #0B5CB8",
": 	c #7FAEDE",
"< 	c #0751A6",
"[ 	c #000103",
"} 	c #130502",
"| 	c #531E00",
"1 	c #994D13",
"2 	c #823B08",
"3 	c #883A00",
"4 	c #26446C",
"5 	c #80AFDF",
"6 	c #0B3469",
"7 	c #5D8ABA",
"8 	c #1F6CBE",
"9 	c #01091A",
"0 	c #010104",
"a 	c #431602",
"b 	c #8A410A",
"c 	c #89401C",
"d 	c #722C12",
"e 	c #63210F",
"f 	c #883E1E",
"g 	c #99460A",
"h 	c #2364AA",
"i 	c #5D89B8",
"j 	c #0C55A9",
"k 	c #5C88B4",
"l 	c #0A4A9B",
"m 	c #5E2000",
"n 	c #8E4412",
"o 	c #521707",
"p 	c #501605",
"q 	c #460F02",
"r 	c #BA6024",
"s 	c #7D3709",
"t 	c #772E00",
"u 	c #0D4694",
"v 	c #2E79C9",
"w 	c #245A90",
"x 	c #0A366D",
"y 	c #0D0200",
"z 	c #6F2B00",
"A 	c #853B11",
"B 	c #350600",
"C 	c #3E0D01",
"D 	c #3D0C01",
"E 	c #3A0A00",
"F 	c #612108",
"G 	c #883E0A",
"H 	c #6F2800",
"I 	c #02336D",
"J 	c #2E78C9",
"K 	c #2871BF",
"L 	c #225C97",
"M 	c #203A68",
"N 	c #753000",
"O 	c #923F16",
"P 	c #8B3C12",
"Q 	c #310700",
"R 	c #360A00",
"S 	c #370B01",
"T 	c #65250B",
"U 	c #702D00",
"V 	c #1E0902",
"W 	c #09366E",
"X 	c #215C97",
"Y 	c #2A73C0",
"Z 	c #21578E",
"` 	c #403D45",
" .	c #974714",
"..	c #95440D",
"+.	c #76310F",
"@.	c #290500",
"#.	c #300901",
"$.	c #260300",
"%.	c #7E3809",
"&.	c #240B01",
"*.	c #040200",
"=.	c #0C4C9C",
"-.	c #20578E",
";.	c #2A78C9",
">.	c #0D2F52",
",.	c #266FBF",
"'.	c #4E261C",
").	c #672C00",
"!.	c #5A2308",
"~.	c #2B0801",
"{.	c #280701",
"].	c #210300",
"^.	c #763307",
"/.	c #381102",
"(.	c #000C27",
"_.	c #2475C8",
":.	c #0D3052",
"<.	c #2B78C9",
"[.	c #0E54A5",
"}.	c #1F4C77",
"|.	c #2C659F",
"1.	c #26426C",
"2.	c #853802",
"3.	c #240702",
"4.	c #230701",
"5.	c #220601",
"6.	c #240701",
"7.	c #341005",
"8.	c #7E3806",
"9.	c #752D00",
"0.	c #30405E",
"a.	c #2C65A1",
"b.	c #204C77",
"c.	c #093367",
"d.	c #2C6CB0",
"e.	c #001023",
"f.	c #546B8A",
"g.	c #2D0400",
"h.	c #1C0803",
"i.	c #1C0600",
"j.	c #1A0600",
"k.	c #1B0600",
"l.	c #1D0700",
"m.	c #100101",
"n.	c #400D00",
"o.	c #586A86",
"p.	c #001123",
"q.	c #1360B8",
"r.	c #25517D",
"s.	c #011021",
"t.	c #3C5875",
"u.	c #4F3C3A",
"v.	c #280200",
"w.	c #100403",
"x.	c #4F3C3B",
"y.	c #3D5876",
"z.	c #02132E",
"A.	c #1C6CC4",
"B.	c #2B4F74",
"C.	c #00020A",
"D.	c #04182A",
"E.	c #254868",
"F.	c #412821",
"G.	c #000101",
"H.	c #03122B",
"I.	c #1260BA",
"J.	c #3B70A8",
"K.	c #2F3D4A",
"L.	c #434751",
"M.	c #0A3366",
"N.	c #0A53A7",
"O.	c #4186CF",
"P.	c #437DBB",
"    .   + @ #       $ +   .     ",
"  % & * = -         ; = * & %   ",
". > , ' ) ! ~ {   ] ^ / ( , > . ",
"  _ : <   [ # } | 1 2 3 4 5 _   ",
"6 7 8 9 0   a b c d e f g h i 6 ",
"j k l {   m n o p q r s t u k j ",
"v w x y z A B C D E F G H I w J ",
"K L M N O P Q R S T U V   W X K ",
"Y Z `  ...+.@.#.$.%.&.*.  =.-.Y ",
";.>.,.'.).!.~.{.].^./.] (._.:.<.",
"[.}.|.1.2.3.4.5.6.7.8.9.0.a.b.[.",
"c.d.e.f.g.h.i.j.k.l.m.n.o.p.d.c.",
"  q.r.s.t.u.v.w.w.v.x.y.s.r.q.  ",
". z.A.B.C.D.E.F.F.E.D.C.B.A.z.. ",
"  G.H.I.J.K.  L.L.  K.J.I.H.G.  ",
"    .   M.N.O.P.P.O.N.M.  .     "};
