/* XPM */
static char * xonotic_xpm[] = {
"16 16 145 2",
"  	c None",
". 	c #126CD0",
"+ 	c #3673B6",
"@ 	c #0F529B",
"# 	c #0F529D",
"$ 	c #1C70CB",
"% 	c #598FCA",
"& 	c #0950A5",
"* 	c #004CA6",
"= 	c #5A91CB",
"- 	c #0C68D0",
"; 	c #7FAEDE",
"> 	c #0751A6",
", 	c #531E00",
"' 	c #994D13",
") 	c #823B08",
"! 	c #883A00",
"~ 	c #26446C",
"{ 	c #80AFDF",
"] 	c #5D8ABA",
"^ 	c #1F6CBE",
"/ 	c #431602",
"( 	c #8A410A",
"_ 	c #89401C",
": 	c #722C12",
"< 	c #63210F",
"[ 	c #883E1E",
"} 	c #99460A",
"| 	c #2364AA",
"1 	c #5D89B8",
"2 	c #0E62C4",
"3 	c #5C88B4",
"4 	c #0A4A9B",
"5 	c #5E2000",
"6 	c #8E4412",
"7 	c #521707",
"8 	c #501605",
"9 	c #460F02",
"0 	c #BA6024",
"a 	c #7D3709",
"b 	c #772E00",
"c 	c #0D4694",
"d 	c #307DD0",
"e 	c #245A90",
"f 	c #0A366D",
"g 	c #6F2B00",
"h 	c #853B11",
"i 	c #350600",
"j 	c #3E0D01",
"k 	c #3D0C01",
"l 	c #3A0A00",
"m 	c #612108",
"n 	c #883E0A",
"o 	c #6F2800",
"p 	c #02336D",
"q 	c #307CD0",
"r 	c #2872C0",
"s 	c #225C97",
"t 	c #203A68",
"u 	c #753000",
"v 	c #923F16",
"w 	c #8B3C12",
"x 	c #310700",
"y 	c #360A00",
"z 	c #370B01",
"A 	c #65250B",
"B 	c #702D00",
"C 	c #09366E",
"D 	c #215C97",
"E 	c #2A74C1",
"F 	c #21578E",
"G 	c #403D45",
"H 	c #974714",
"I 	c #95440D",
"J 	c #76310F",
"K 	c #290500",
"L 	c #300901",
"M 	c #260300",
"N 	c #7E3809",
"O 	c #0C4C9C",
"P 	c #20578E",
"Q 	c #2B7CD0",
"R 	c #0D2F52",
"S 	c #266FBF",
"T 	c #4E261C",
"U 	c #672C00",
"V 	c #5A2308",
"W 	c #2B0801",
"X 	c #280701",
"Y 	c #210300",
"Z 	c #763307",
"` 	c #2475C8",
" .	c #0D3052",
"..	c #2D7CD0",
"+.	c #1062C1",
"@.	c #1F4C77",
"#.	c #2C659F",
"$.	c #26426C",
"%.	c #853802",
"&.	c #240702",
"*.	c #230701",
"=.	c #220601",
"-.	c #240701",
";.	c #341005",
">.	c #7E3806",
",.	c #752D00",
"'.	c #30405E",
").	c #2C65A1",
"!.	c #204C77",
"~.	c #2C6CB0",
"{.	c #001023",
"].	c #546B8A",
"^.	c #2D0400",
"/.	c #1C0803",
"(.	c #1C0600",
"_.	c #1A0600",
":.	c #1B0600",
"<.	c #1D0700",
"[.	c #100101",
"}.	c #400D00",
"|.	c #586A86",
"1.	c #001123",
"2.	c #156CD0",
"3.	c #25517D",
"4.	c #011021",
"5.	c #3C5875",
"6.	c #4F3C3A",
"7.	c #280200",
"8.	c #100403",
"9.	c #4F3C3B",
"0.	c #3D5876",
"a.	c #1E74D2",
"b.	c #2B4F74",
"c.	c #00020A",
"d.	c #04182A",
"e.	c #254868",
"f.	c #412821",
"g.	c #146CD1",
"h.	c #3B70A8",
"i.	c #2F3D4A",
"j.	c #000000",
"k.	c #434751",
"l.	c #0C61C2",
"m.	c #438AD5",
"n.	c #437EBC",
"                                ",
"      . + @         # + .       ",
"    $ % &             * = $     ",
"  - ; >         , ' ) ! ~ { -   ",
"  ] ^       / ( _ : < [ } | 1   ",
"2 3 4     5 6 7 8 9 0 a b c 3 2 ",
"d e f   g h i j k l m n o p e q ",
"r s t u v w x y z A B     C D r ",
"E F G H I J K L M N       O P E ",
"Q R S T U V W X Y Z       `  ...",
"+.@.#.$.%.&.*.=.-.;.>.,.'.).!.+.",
"  ~.{.].^./.(._.:.<.[.}.|.1.~.  ",
"  2.3.4.5.6.7.8.8.7.9.0.4.3.2.  ",
"    a.b.c.d.e.f.f.e.d.c.b.a.    ",
"      g.h.i.j.k.k.j.i.h.g.      ",
"          l.m.n.n.m.l.          "};
